<?xml version="1.0" encoding="UTF-8" standalone="no"?>
<!-- Created with Inkscape (http://www.inkscape.org/) -->

<svg
   width="365.43713mm"
   height="189.91035mm"
   viewBox="0 0 365.43713 189.91035"
   version="1.1"
   id="svg1"
   inkscape:version="1.4 (1:1.4+202410161351+e7c3feb100)"
   sodipodi:docname="montpellier_atout.svg"
   xml:space="preserve"
   xmlns:inkscape="http://www.inkscape.org/namespaces/inkscape"
   xmlns:sodipodi="http://sodipodi.sourceforge.net/DTD/sodipodi-0.dtd"
   xmlns="http://www.w3.org/2000/svg"
   xmlns:svg="http://www.w3.org/2000/svg"><sodipodi:namedview
     id="namedview1"
     pagecolor="#ffffff"
     bordercolor="#000000"
     borderopacity="0.25"
     inkscape:showpageshadow="2"
     inkscape:pageopacity="0.0"
     inkscape:pagecheckerboard="0"
     inkscape:deskcolor="#d1d1d1"
     inkscape:document-units="mm"
     inkscape:zoom="0.44804661"
     inkscape:cx="759.96557"
     inkscape:cy="164.04543"
     inkscape:window-width="1610"
     inkscape:window-height="986"
     inkscape:window-x="0"
     inkscape:window-y="0"
     inkscape:window-maximized="1"
     inkscape:current-layer="layer1"
     showgrid="false" /><defs
     id="defs1"><rect
       x="609.1416"
       y="0"
       width="9.4881868"
       height="324.496"
       id="rect44" /></defs><g
     inkscape:label="Layer 1"
     inkscape:groupmode="layer"
     id="layer1"
     transform="translate(85.251106,-102.0413)"><path
       fill="currentColor"
       d="m 124.22807,127.07578 h -2.56035 v -6.63793 h -13.65517 v -4.36207 h 11.28448 c 0.41725,0 0.75863,-0.34138 0.75863,-0.75862 v -12.51724 c 0,-0.41724 -0.34138,-0.75862 -0.75863,-0.75862 H 93.503886 c -0.417241,0 -0.75862,0.34138 -0.75862,0.75862 v 12.51724 c 0,0.41724 0.341379,0.75862 0.75862,0.75862 H 104.7884 v 4.36207 H 91.133196 v 6.63793 H 88.57285 c -0.20862,0 -0.37931,0.17069 -0.37931,0.37931 v 8.34483 c 0,0.20862 0.17069,0.37931 0.37931,0.37931 h 8.344832 c 0.20862,0 0.37931,-0.17069 0.37931,-0.37931 v -8.34483 c 0,-0.20862 -0.17069,-0.37931 -0.37931,-0.37931 h -2.560347 v -3.41379 H 104.7884 v 3.41379 h -2.56035 c -0.20862,0 -0.37931,0.17069 -0.37931,0.37931 v 8.34483 c 0,0.20862 0.17069,0.37931 0.37931,0.37931 h 8.34484 c 0.20863,0 0.37932,-0.17069 0.37932,-0.37931 v -8.34483 c 0,-0.20862 -0.17069,-0.37931 -0.37932,-0.37931 h -2.56034 v -3.41379 h 10.43104 v 3.41379 h -2.56035 c -0.20862,0 -0.37931,0.17069 -0.37931,0.37931 v 8.34483 c 0,0.20862 0.17069,0.37931 0.37931,0.37931 h 8.34483 c 0.20862,0 0.37931,-0.17069 0.37931,-0.37931 v -8.34483 c 0,-0.20862 -0.17069,-0.37931 -0.37931,-0.37931 m -29.965563,5.94095 c 0,0.0711 -0.0569,0.12802 -0.128017,0.12802 h -2.783191 c -0.07112,0 -0.128017,-0.0569 -0.128017,-0.12802 v -2.78319 c 0,-0.0711 0.0569,-0.12802 0.128017,-0.12802 h 2.783191 c 0.07112,0 0.128017,0.0569 0.128017,0.12802 z m 13.655213,0 c 0,0.0711 -0.0569,0.12802 -0.12801,0.12802 h -2.7832 c -0.0711,0 -0.12802,-0.0569 -0.12802,-0.12802 v -2.78319 c 0,-0.0711 0.0569,-0.12802 0.12802,-0.12802 h 2.7832 c 0.0711,0 0.12801,0.0569 0.12801,0.12802 z M 95.77975,113.0413 v -7.96552 h 21.24142 v 7.96552 z m 25.79314,19.97543 c 0,0.0711 -0.0569,0.12802 -0.12801,0.12802 h -2.78319 c -0.0711,0 -0.12802,-0.0569 -0.12802,-0.12802 v -2.78319 c 0,-0.0711 0.0569,-0.12802 0.12802,-0.12802 h 2.78319 c 0.0711,0 0.12801,0.0569 0.12801,0.12802 z M 99.193541,109.05854 a 1.896565,1.896565 0 1 0 3.793129,0 1.896565,1.896565 0 1 0 -3.793129,0"
       id="path1"
       style="font-variation-settings:normal;opacity:1;vector-effect:none;fill:#047c90;fill-opacity:1;stroke:none;stroke-width:4.99999;stroke-linecap:round;stroke-linejoin:miter;stroke-miterlimit:4;stroke-dasharray:none;stroke-dashoffset:0;stroke-opacity:1;-inkscape-stroke:none;stop-color:#000000;stop-opacity:1" /><g
       id="g37422"
       transform="matrix(-0.20054523,0,0,0.20054523,423.03514,176.87584)"
       style="fill:#047c90;fill-opacity:1"><path
         id="path37390"
         class="st6"
         d="m 812.55045,343.26996 c 0,-12.4 28.2,-22.4 63,-22.4 34.8,0 63,10 63,22.4 m -126,0 v 27.9 c 0,3 1.7,5.9 4.7,8.5 9.4,8.2 32,13.9 58.3,13.9 26.4,0 48.9,-5.8 58.3,-13.9 3,-2.6 4.7,-5.5 4.7,-8.5 v -27.9"
         style="fill:#047c90;fill-opacity:1;stroke:#fffdff;stroke-width:4;stroke-miterlimit:10;stroke-opacity:1" /><path
         class="st34"
         d="m 938.55045,343.26996 c 0,12.4 -28.2,22.4 -63,22.4 -34.8,0 -63,-10 -63,-22.4 0,-12.4 28.2,-22.4 63,-22.4 34.8,0 63,10 63,22.4 z"
         id="path37392"
         style="fill:#047c90;fill-opacity:1;stroke:#6693ed;stroke-width:4;stroke-miterlimit:10" /><path
         id="path37394"
         class="st6"
         d="m 812.55045,315.36996 c 0,-12.4 28.2,-22.4 63,-22.4 34.8,0 63,10 63,22.4 m -126,0 v 27.9 c 0,3 1.7,5.9 4.7,8.5 9.4,8.2 32,13.9 58.3,13.9 26.4,0 48.9,-5.8 58.3,-13.9 3,-2.6 4.7,-5.5 4.7,-8.5 v -27.9"
         style="fill:#047c90;fill-opacity:1;stroke:#fffdff;stroke-width:4;stroke-miterlimit:10;stroke-opacity:1" /><path
         class="st34"
         d="m 938.55045,315.36996 c 0,12.4 -28.2,22.4 -63,22.4 -34.8,0 -63,-10 -63,-22.4 0,-12.4 28.2,-22.4 63,-22.4 34.8,0 63,10 63,22.4 z"
         id="path37396"
         style="fill:#047c90;fill-opacity:1;stroke:#6693ed;stroke-width:4;stroke-miterlimit:10" /><path
         id="path37398"
         class="st6"
         d="m 812.55045,287.46996 c 0,-12.4 28.2,-22.4 63,-22.4 34.8,0 63,10 63,22.4 m -126,0 v 27.9 c 0,3 1.7,5.9 4.7,8.5 9.4,8.2 32,13.9 58.3,13.9 26.4,0 48.9,-5.8 58.3,-13.9 3,-2.6 4.7,-5.5 4.7,-8.5 v -27.9"
         style="fill:#047c90;fill-opacity:1;stroke:#fffdff;stroke-width:4;stroke-miterlimit:10;stroke-opacity:1" /><path
         class="st34"
         d="m 938.55045,287.46996 c 0,12.4 -28.2,22.4 -63,22.4 -34.8,0 -63,-10 -63,-22.4 0,-12.4 28.2,-22.4 63,-22.4 34.8,0 63,10 63,22.4 z"
         id="path37400"
         style="fill:#047c90;fill-opacity:1;stroke:#6693ed;stroke-width:4;stroke-miterlimit:10" /><path
         id="path37402"
         class="st6"
         d="m 812.55045,259.56996 c 0,-12.4 28.2,-22.4 63,-22.4 34.8,0 63,10 63,22.4 m -126,0 v 27.9 c 0,3 1.7,5.9 4.7,8.5 9.4,8.2 32,13.9 58.3,13.9 26.4,0 48.9,-5.8 58.3,-13.9 3,-2.6 4.7,-5.5 4.7,-8.5 v -27.9"
         style="fill:#047c90;fill-opacity:1;stroke:#fffdff;stroke-width:4;stroke-miterlimit:10;stroke-opacity:1" /><path
         class="st5"
         d="m 938.55045,259.56996 c 0,12.4 -28.2,22.4 -63,22.4 -34.8,0 -63,-10 -63,-22.4 0,-12.4 28.2,-22.4 63,-22.4 34.8,0 63,10 63,22.4 z"
         id="path37404"
         style="fill:#047c90;fill-opacity:1;stroke:#fffdff;stroke-width:4;stroke-miterlimit:10;stroke-opacity:1" /><path
         id="path37406"
         class="st6"
         d="m 812.55045,343.26996 c 0,-12.4 28.2,-22.4 63,-22.4 34.8,0 63,10 63,22.4 m -126,0 v 27.9 c 0,3 1.7,5.9 4.7,8.5 9.4,8.2 32,13.9 58.3,13.9 26.4,0 48.9,-5.8 58.3,-13.9 3,-2.6 4.7,-5.5 4.7,-8.5 v -27.9"
         style="fill:#047c90;fill-opacity:1;stroke:#fffdff;stroke-width:4;stroke-miterlimit:10;stroke-opacity:1" /><path
         class="st34"
         d="m 938.55045,343.26996 c 0,12.4 -28.2,22.4 -63,22.4 -34.8,0 -63,-10 -63,-22.4 0,-12.4 28.2,-22.4 63,-22.4 34.8,0 63,10 63,22.4 z"
         id="path37408"
         style="fill:#047c90;fill-opacity:1;stroke:#6693ed;stroke-width:4;stroke-miterlimit:10" /><path
         id="path37410"
         class="st6"
         d="m 812.55045,315.36996 c 0,-12.4 28.2,-22.4 63,-22.4 34.8,0 63,10 63,22.4 m -126,0 v 27.9 c 0,3 1.7,5.9 4.7,8.5 9.4,8.2 32,13.9 58.3,13.9 26.4,0 48.9,-5.8 58.3,-13.9 3,-2.6 4.7,-5.5 4.7,-8.5 v -27.9"
         style="fill:#047c90;fill-opacity:1;stroke:#fffdff;stroke-width:4;stroke-miterlimit:10;stroke-opacity:1" /><path
         class="st34"
         d="m 938.55045,315.36996 c 0,12.4 -28.2,22.4 -63,22.4 -34.8,0 -63,-10 -63,-22.4 0,-12.4 28.2,-22.4 63,-22.4 34.8,0 63,10 63,22.4 z"
         id="path37412"
         style="fill:#047c90;fill-opacity:1;stroke:#6693ed;stroke-width:4;stroke-miterlimit:10" /><path
         id="path37414"
         class="st6"
         d="m 812.55045,287.46996 c 0,-12.4 28.2,-22.4 63,-22.4 34.8,0 63,10 63,22.4 m -126,0 v 27.9 c 0,3 1.7,5.9 4.7,8.5 9.4,8.2 32,13.9 58.3,13.9 26.4,0 48.9,-5.8 58.3,-13.9 3,-2.6 4.7,-5.5 4.7,-8.5 v -27.9"
         style="fill:#047c90;fill-opacity:1;stroke:#fffdff;stroke-width:4;stroke-miterlimit:10;stroke-opacity:1" /><path
         class="st34"
         d="m 938.55045,287.46996 c 0,12.4 -28.2,22.4 -63,22.4 -34.8,0 -63,-10 -63,-22.4 0,-12.4 28.2,-22.4 63,-22.4 34.8,0 63,10 63,22.4 z"
         id="path37416"
         style="fill:#047c90;fill-opacity:1;stroke:#6693ed;stroke-width:4;stroke-miterlimit:10" /><path
         id="path37418"
         class="st6"
         d="m 812.55045,259.56996 c 0,-12.4 28.2,-22.4 63,-22.4 34.8,0 63,10 63,22.4 m -126,0 v 27.9 c 0,3 1.7,5.9 4.7,8.5 9.4,8.2 32,13.9 58.3,13.9 26.4,0 48.9,-5.8 58.3,-13.9 3,-2.6 4.7,-5.5 4.7,-8.5 v -27.9"
         style="fill:#047c90;fill-opacity:1;stroke:#fffdff;stroke-width:4;stroke-miterlimit:10;stroke-opacity:1" /><path
         class="st5"
         d="m 938.55045,259.56996 c 0,12.4 -28.2,22.4 -63,22.4 -34.8,0 -63,-10 -63,-22.4 0,-12.4 28.2,-22.4 63,-22.4 34.8,0 63,10 63,22.4 z"
         id="path37420"
         style="fill:#047c90;fill-opacity:1;stroke:#fffdff;stroke-width:4;stroke-miterlimit:10;stroke-opacity:1" /></g><g
       id="g36207"
       transform="matrix(-0.20054523,0,0,0.20054523,427.31906,183.69437)"
       style="fill:#047c90;fill-opacity:1"><path
         id="path36175"
         class="st6"
         d="m 812.55045,343.26996 c 0,-12.4 28.2,-22.4 63,-22.4 34.8,0 63,10 63,22.4 m -126,0 v 27.9 c 0,3 1.7,5.9 4.7,8.5 9.4,8.2 32,13.9 58.3,13.9 26.4,0 48.9,-5.8 58.3,-13.9 3,-2.6 4.7,-5.5 4.7,-8.5 v -27.9"
         style="fill:#047c90;fill-opacity:1;stroke:#fffdff;stroke-width:4;stroke-miterlimit:10;stroke-opacity:1" /><path
         class="st34"
         d="m 938.55045,343.26996 c 0,12.4 -28.2,22.4 -63,22.4 -34.8,0 -63,-10 -63,-22.4 0,-12.4 28.2,-22.4 63,-22.4 34.8,0 63,10 63,22.4 z"
         id="path36177"
         style="fill:#047c90;fill-opacity:1;stroke:#6693ed;stroke-width:4;stroke-miterlimit:10" /><path
         id="path36179"
         class="st6"
         d="m 812.55045,315.36996 c 0,-12.4 28.2,-22.4 63,-22.4 34.8,0 63,10 63,22.4 m -126,0 v 27.9 c 0,3 1.7,5.9 4.7,8.5 9.4,8.2 32,13.9 58.3,13.9 26.4,0 48.9,-5.8 58.3,-13.9 3,-2.6 4.7,-5.5 4.7,-8.5 v -27.9"
         style="fill:#047c90;fill-opacity:1;stroke:#fffdff;stroke-width:4;stroke-miterlimit:10;stroke-opacity:1" /><path
         class="st34"
         d="m 938.55045,315.36996 c 0,12.4 -28.2,22.4 -63,22.4 -34.8,0 -63,-10 -63,-22.4 0,-12.4 28.2,-22.4 63,-22.4 34.8,0 63,10 63,22.4 z"
         id="path36181"
         style="fill:#047c90;fill-opacity:1;stroke:#6693ed;stroke-width:4;stroke-miterlimit:10" /><path
         id="path36183"
         class="st6"
         d="m 812.55045,287.46996 c 0,-12.4 28.2,-22.4 63,-22.4 34.8,0 63,10 63,22.4 m -126,0 v 27.9 c 0,3 1.7,5.9 4.7,8.5 9.4,8.2 32,13.9 58.3,13.9 26.4,0 48.9,-5.8 58.3,-13.9 3,-2.6 4.7,-5.5 4.7,-8.5 v -27.9"
         style="fill:#047c90;fill-opacity:1;stroke:#fffdff;stroke-width:4;stroke-miterlimit:10;stroke-opacity:1" /><path
         class="st34"
         d="m 938.55045,287.46996 c 0,12.4 -28.2,22.4 -63,22.4 -34.8,0 -63,-10 -63,-22.4 0,-12.4 28.2,-22.4 63,-22.4 34.8,0 63,10 63,22.4 z"
         id="path36185"
         style="fill:#047c90;fill-opacity:1;stroke:#6693ed;stroke-width:4;stroke-miterlimit:10" /><path
         id="path36187"
         class="st6"
         d="m 812.55045,259.56996 c 0,-12.4 28.2,-22.4 63,-22.4 34.8,0 63,10 63,22.4 m -126,0 v 27.9 c 0,3 1.7,5.9 4.7,8.5 9.4,8.2 32,13.9 58.3,13.9 26.4,0 48.9,-5.8 58.3,-13.9 3,-2.6 4.7,-5.5 4.7,-8.5 v -27.9"
         style="fill:#047c90;fill-opacity:1;stroke:#fffdff;stroke-width:4;stroke-miterlimit:10;stroke-opacity:1" /><path
         class="st5"
         d="m 938.55045,259.56996 c 0,12.4 -28.2,22.4 -63,22.4 -34.8,0 -63,-10 -63,-22.4 0,-12.4 28.2,-22.4 63,-22.4 34.8,0 63,10 63,22.4 z"
         id="path36189"
         style="fill:#047c90;fill-opacity:1;stroke:#fffdff;stroke-width:4;stroke-miterlimit:10;stroke-opacity:1" /><path
         id="path36191"
         class="st6"
         d="m 812.55045,343.26996 c 0,-12.4 28.2,-22.4 63,-22.4 34.8,0 63,10 63,22.4 m -126,0 v 27.9 c 0,3 1.7,5.9 4.7,8.5 9.4,8.2 32,13.9 58.3,13.9 26.4,0 48.9,-5.8 58.3,-13.9 3,-2.6 4.7,-5.5 4.7,-8.5 v -27.9"
         style="fill:#047c90;fill-opacity:1;stroke:#fffdff;stroke-width:4;stroke-miterlimit:10;stroke-opacity:1" /><path
         class="st34"
         d="m 938.55045,343.26996 c 0,12.4 -28.2,22.4 -63,22.4 -34.8,0 -63,-10 -63,-22.4 0,-12.4 28.2,-22.4 63,-22.4 34.8,0 63,10 63,22.4 z"
         id="path36193"
         style="fill:#047c90;fill-opacity:1;stroke:#6693ed;stroke-width:4;stroke-miterlimit:10" /><path
         id="path36195"
         class="st6"
         d="m 812.55045,315.36996 c 0,-12.4 28.2,-22.4 63,-22.4 34.8,0 63,10 63,22.4 m -126,0 v 27.9 c 0,3 1.7,5.9 4.7,8.5 9.4,8.2 32,13.9 58.3,13.9 26.4,0 48.9,-5.8 58.3,-13.9 3,-2.6 4.7,-5.5 4.7,-8.5 v -27.9"
         style="fill:#047c90;fill-opacity:1;stroke:#fffdff;stroke-width:4;stroke-miterlimit:10;stroke-opacity:1" /><path
         class="st34"
         d="m 938.55045,315.36996 c 0,12.4 -28.2,22.4 -63,22.4 -34.8,0 -63,-10 -63,-22.4 0,-12.4 28.2,-22.4 63,-22.4 34.8,0 63,10 63,22.4 z"
         id="path36197"
         style="fill:#047c90;fill-opacity:1;stroke:#6693ed;stroke-width:4;stroke-miterlimit:10" /><path
         id="path36199"
         class="st6"
         d="m 812.55045,287.46996 c 0,-12.4 28.2,-22.4 63,-22.4 34.8,0 63,10 63,22.4 m -126,0 v 27.9 c 0,3 1.7,5.9 4.7,8.5 9.4,8.2 32,13.9 58.3,13.9 26.4,0 48.9,-5.8 58.3,-13.9 3,-2.6 4.7,-5.5 4.7,-8.5 v -27.9"
         style="fill:#047c90;fill-opacity:1;stroke:#fffdff;stroke-width:4;stroke-miterlimit:10;stroke-opacity:1" /><path
         class="st34"
         d="m 938.55045,287.46996 c 0,12.4 -28.2,22.4 -63,22.4 -34.8,0 -63,-10 -63,-22.4 0,-12.4 28.2,-22.4 63,-22.4 34.8,0 63,10 63,22.4 z"
         id="path36201"
         style="fill:#047c90;fill-opacity:1;stroke:#6693ed;stroke-width:4;stroke-miterlimit:10" /><path
         id="path36203"
         class="st6"
         d="m 812.55045,259.56996 c 0,-12.4 28.2,-22.4 63,-22.4 34.8,0 63,10 63,22.4 m -126,0 v 27.9 c 0,3 1.7,5.9 4.7,8.5 9.4,8.2 32,13.9 58.3,13.9 26.4,0 48.9,-5.8 58.3,-13.9 3,-2.6 4.7,-5.5 4.7,-8.5 v -27.9"
         style="fill:#047c90;fill-opacity:1;stroke:#fffdff;stroke-width:4;stroke-miterlimit:10;stroke-opacity:1" /><path
         class="st5"
         d="m 938.55045,259.56996 c 0,12.4 -28.2,22.4 -63,22.4 -34.8,0 -63,-10 -63,-22.4 0,-12.4 28.2,-22.4 63,-22.4 34.8,0 63,10 63,22.4 z"
         id="path36205"
         style="fill:#047c90;fill-opacity:1;stroke:#fffdff;stroke-width:4;stroke-miterlimit:10;stroke-opacity:1" /></g><g
       id="g34691"
       transform="matrix(-0.20054523,0,0,0.20054523,432.51907,190.58826)"
       style="fill:#047c90;fill-opacity:1"><path
         id="path34659"
         class="st6"
         d="m 812.55045,343.26996 c 0,-12.4 28.2,-22.4 63,-22.4 34.8,0 63,10 63,22.4 m -126,0 v 27.9 c 0,3 1.7,5.9 4.7,8.5 9.4,8.2 32,13.9 58.3,13.9 26.4,0 48.9,-5.8 58.3,-13.9 3,-2.6 4.7,-5.5 4.7,-8.5 v -27.9"
         style="fill:#047c90;fill-opacity:1;stroke:#fffdff;stroke-width:4;stroke-miterlimit:10;stroke-opacity:1" /><path
         class="st34"
         d="m 938.55045,343.26996 c 0,12.4 -28.2,22.4 -63,22.4 -34.8,0 -63,-10 -63,-22.4 0,-12.4 28.2,-22.4 63,-22.4 34.8,0 63,10 63,22.4 z"
         id="path34661"
         style="fill:#047c90;fill-opacity:1;stroke:#6693ed;stroke-width:4;stroke-miterlimit:10" /><path
         id="path34663"
         class="st6"
         d="m 812.55045,315.36996 c 0,-12.4 28.2,-22.4 63,-22.4 34.8,0 63,10 63,22.4 m -126,0 v 27.9 c 0,3 1.7,5.9 4.7,8.5 9.4,8.2 32,13.9 58.3,13.9 26.4,0 48.9,-5.8 58.3,-13.9 3,-2.6 4.7,-5.5 4.7,-8.5 v -27.9"
         style="fill:#047c90;fill-opacity:1;stroke:#fffdff;stroke-width:4;stroke-miterlimit:10;stroke-opacity:1" /><path
         class="st34"
         d="m 938.55045,315.36996 c 0,12.4 -28.2,22.4 -63,22.4 -34.8,0 -63,-10 -63,-22.4 0,-12.4 28.2,-22.4 63,-22.4 34.8,0 63,10 63,22.4 z"
         id="path34665"
         style="fill:#047c90;fill-opacity:1;stroke:#6693ed;stroke-width:4;stroke-miterlimit:10" /><path
         id="path34667"
         class="st6"
         d="m 812.55045,287.46996 c 0,-12.4 28.2,-22.4 63,-22.4 34.8,0 63,10 63,22.4 m -126,0 v 27.9 c 0,3 1.7,5.9 4.7,8.5 9.4,8.2 32,13.9 58.3,13.9 26.4,0 48.9,-5.8 58.3,-13.9 3,-2.6 4.7,-5.5 4.7,-8.5 v -27.9"
         style="fill:#047c90;fill-opacity:1;stroke:#fffdff;stroke-width:4;stroke-miterlimit:10;stroke-opacity:1" /><path
         class="st34"
         d="m 938.55045,287.46996 c 0,12.4 -28.2,22.4 -63,22.4 -34.8,0 -63,-10 -63,-22.4 0,-12.4 28.2,-22.4 63,-22.4 34.8,0 63,10 63,22.4 z"
         id="path34669"
         style="fill:#047c90;fill-opacity:1;stroke:#6693ed;stroke-width:4;stroke-miterlimit:10" /><path
         id="path34671"
         class="st6"
         d="m 812.55045,259.56996 c 0,-12.4 28.2,-22.4 63,-22.4 34.8,0 63,10 63,22.4 m -126,0 v 27.9 c 0,3 1.7,5.9 4.7,8.5 9.4,8.2 32,13.9 58.3,13.9 26.4,0 48.9,-5.8 58.3,-13.9 3,-2.6 4.7,-5.5 4.7,-8.5 v -27.9"
         style="fill:#047c90;fill-opacity:1;stroke:#fffdff;stroke-width:4;stroke-miterlimit:10;stroke-opacity:1" /><path
         class="st5"
         d="m 938.55045,259.56996 c 0,12.4 -28.2,22.4 -63,22.4 -34.8,0 -63,-10 -63,-22.4 0,-12.4 28.2,-22.4 63,-22.4 34.8,0 63,10 63,22.4 z"
         id="path34673"
         style="fill:#047c90;fill-opacity:1;stroke:#fffdff;stroke-width:4;stroke-miterlimit:10;stroke-opacity:1" /><path
         id="path34675"
         class="st6"
         d="m 812.55045,343.26996 c 0,-12.4 28.2,-22.4 63,-22.4 34.8,0 63,10 63,22.4 m -126,0 v 27.9 c 0,3 1.7,5.9 4.7,8.5 9.4,8.2 32,13.9 58.3,13.9 26.4,0 48.9,-5.8 58.3,-13.9 3,-2.6 4.7,-5.5 4.7,-8.5 v -27.9"
         style="fill:#047c90;fill-opacity:1;stroke:#fffdff;stroke-width:4;stroke-miterlimit:10;stroke-opacity:1" /><path
         class="st34"
         d="m 938.55045,343.26996 c 0,12.4 -28.2,22.4 -63,22.4 -34.8,0 -63,-10 -63,-22.4 0,-12.4 28.2,-22.4 63,-22.4 34.8,0 63,10 63,22.4 z"
         id="path34677"
         style="fill:#047c90;fill-opacity:1;stroke:#6693ed;stroke-width:4;stroke-miterlimit:10" /><path
         id="path34679"
         class="st6"
         d="m 812.55045,315.36996 c 0,-12.4 28.2,-22.4 63,-22.4 34.8,0 63,10 63,22.4 m -126,0 v 27.9 c 0,3 1.7,5.9 4.7,8.5 9.4,8.2 32,13.9 58.3,13.9 26.4,0 48.9,-5.8 58.3,-13.9 3,-2.6 4.7,-5.5 4.7,-8.5 v -27.9"
         style="fill:#047c90;fill-opacity:1;stroke:#fffdff;stroke-width:4;stroke-miterlimit:10;stroke-opacity:1" /><path
         class="st34"
         d="m 938.55045,315.36996 c 0,12.4 -28.2,22.4 -63,22.4 -34.8,0 -63,-10 -63,-22.4 0,-12.4 28.2,-22.4 63,-22.4 34.8,0 63,10 63,22.4 z"
         id="path34681"
         style="fill:#047c90;fill-opacity:1;stroke:#6693ed;stroke-width:4;stroke-miterlimit:10" /><path
         id="path34683"
         class="st6"
         d="m 812.55045,287.46996 c 0,-12.4 28.2,-22.4 63,-22.4 34.8,0 63,10 63,22.4 m -126,0 v 27.9 c 0,3 1.7,5.9 4.7,8.5 9.4,8.2 32,13.9 58.3,13.9 26.4,0 48.9,-5.8 58.3,-13.9 3,-2.6 4.7,-5.5 4.7,-8.5 v -27.9"
         style="fill:#047c90;fill-opacity:1;stroke:#fffdff;stroke-width:4;stroke-miterlimit:10;stroke-opacity:1" /><path
         class="st34"
         d="m 938.55045,287.46996 c 0,12.4 -28.2,22.4 -63,22.4 -34.8,0 -63,-10 -63,-22.4 0,-12.4 28.2,-22.4 63,-22.4 34.8,0 63,10 63,22.4 z"
         id="path34685"
         style="fill:#047c90;fill-opacity:1;stroke:#6693ed;stroke-width:4;stroke-miterlimit:10" /><path
         id="path34687"
         class="st6"
         d="m 812.55045,259.56996 c 0,-12.4 28.2,-22.4 63,-22.4 34.8,0 63,10 63,22.4 m -126,0 v 27.9 c 0,3 1.7,5.9 4.7,8.5 9.4,8.2 32,13.9 58.3,13.9 26.4,0 48.9,-5.8 58.3,-13.9 3,-2.6 4.7,-5.5 4.7,-8.5 v -27.9"
         style="fill:#047c90;fill-opacity:1;stroke:#fffdff;stroke-width:4;stroke-miterlimit:10;stroke-opacity:1" /><path
         class="st5"
         d="m 938.55045,259.56996 c 0,12.4 -28.2,22.4 -63,22.4 -34.8,0 -63,-10 -63,-22.4 0,-12.4 28.2,-22.4 63,-22.4 34.8,0 63,10 63,22.4 z"
         id="path34689"
         style="fill:#047c90;fill-opacity:1;stroke:#fffdff;stroke-width:4;stroke-miterlimit:10;stroke-opacity:1" /></g><path
       style="fill:none;fill-opacity:1;stroke:#047c90;stroke-width:4.99999;stroke-linecap:round;stroke-dasharray:none;stroke-opacity:1"
       d="M -8.1644423,249.24824 H 220.96536"
       id="path38"
       sodipodi:nodetypes="cc" /><path
       style="font-variation-settings:normal;opacity:1;vector-effect:none;fill:none;fill-opacity:1;stroke:#047c90;stroke-width:4.99999;stroke-linecap:round;stroke-linejoin:miter;stroke-miterlimit:4;stroke-dasharray:none;stroke-dashoffset:0;stroke-opacity:1;-inkscape-stroke:none;stop-color:#000000;stop-opacity:1"
       d="M -10.389508,214.45443 62.089071,152.40111"
       id="path40"
       sodipodi:nodetypes="cc" /><text
       xml:space="preserve"
       transform="matrix(0.26458333,0,0,0.26458333,1.3672096,112.09553)"
       id="text44"
       style="font-size:53.3333px;line-height:125%;font-family:Cousine;-inkscape-font-specification:Cousine;text-align:center;text-decoration-color:#000000;letter-spacing:0px;word-spacing:0px;writing-mode:lr-tb;direction:ltr;white-space:pre;shape-inside:url(#rect44);display:inline;fill:#000000;fill-opacity:1;stroke:none;stroke-width:18.8976;stroke-linecap:round;stroke-dasharray:none;stroke-opacity:1" /><text
       xml:space="preserve"
       style="font-size:14.1111px;line-height:125%;font-family:Cousine;-inkscape-font-specification:Cousine;text-align:center;text-decoration-color:#000000;letter-spacing:0px;word-spacing:0px;writing-mode:lr-tb;direction:ltr;text-anchor:middle;fill:#000000;fill-opacity:1;stroke:none;stroke-width:17.7126;stroke-linecap:round;stroke-dasharray:none;stroke-opacity:1"
       x="-126.90845"
       y="102.69051"
       id="text45"><tspan
         sodipodi:role="line"
         style="font-size:14.1111px;fill:#000000;fill-opacity:1;stroke:none;stroke-width:17.7126"
         x="-126.90845"
         y="102.69051"
         id="tspan46" /></text><path
       style="font-variation-settings:normal;opacity:1;vector-effect:none;fill:none;fill-opacity:1;stroke:#047c90;stroke-width:4.99999;stroke-linecap:round;stroke-linejoin:miter;stroke-miterlimit:4;stroke-dasharray:none;stroke-dashoffset:0;stroke-opacity:1;-inkscape-stroke:none;stop-color:#000000;stop-opacity:1"
       d="M 223.19043,214.45443 150.71185,152.40111"
       id="path39"
       sodipodi:nodetypes="cc" /><text
       xml:space="preserve"
       style="font-style:normal;font-variant:normal;font-weight:bold;font-stretch:normal;font-size:14.1111px;line-height:1.25;font-family:Nunito;-inkscape-font-specification:'Nunito Bold';text-align:center;text-anchor:middle;fill:#047c90;fill-opacity:1;stroke-width:0.264583"
       x="106.15174"
       y="156.12448"
       id="text37472"><tspan
         sodipodi:role="line"
         id="tspan37470"
         x="106.15174"
         y="156.12448"
         style="font-size:14.1111px;text-align:center;text-anchor:middle;fill:#047c90;fill-opacity:1;stroke-width:0.264583">Super</tspan><tspan
         sodipodi:role="line"
         x="106.15174"
         y="173.76335"
         style="font-size:14.1111px;text-align:center;text-anchor:middle;fill:#047c90;fill-opacity:1;stroke-width:0.264583"
         id="tspan40">calculateur</tspan></text><text
       xml:space="preserve"
       style="font-style:normal;font-variant:normal;font-weight:bold;font-stretch:normal;font-size:14.1111px;line-height:1.25;font-family:Nunito;-inkscape-font-specification:'Nunito Bold';text-align:center;text-anchor:middle;fill:#047c90;fill-opacity:1;stroke-width:0.264583"
       x="-44.276588"
       y="289.29877"
       id="text46"><tspan
         sodipodi:role="line"
         x="-44.276588"
         y="289.29877"
         style="font-size:14.1111px;text-align:center;text-anchor:middle;fill:#047c90;fill-opacity:1;stroke-width:0.264583"
         id="tspan44">Expertise(s)</tspan></text><text
       xml:space="preserve"
       style="font-style:normal;font-variant:normal;font-weight:bold;font-stretch:normal;font-size:14.1111px;line-height:1.25;font-family:Nunito;-inkscape-font-specification:'Nunito Bold';text-align:center;text-anchor:middle;fill:#047c90;fill-opacity:1;stroke-width:0.264583"
       x="251.8933"
       y="290.05511"
       id="text48"><tspan
         sodipodi:role="line"
         x="251.8933"
         y="290.05511"
         style="font-size:14.1111px;text-align:center;text-anchor:middle;fill:#047c90;fill-opacity:1;stroke-width:0.264583"
         id="tspan48">Données</tspan></text><g
       transform="matrix(0.12709581,0,0,0.12709581,167.08773,10.107967)"
       id="g1544"
       style="font-variation-settings:normal;opacity:1;vector-effect:none;fill:#047c90;fill-opacity:1;stroke:none;stroke-width:39.3403;stroke-linecap:round;stroke-linejoin:miter;stroke-miterlimit:4;stroke-dasharray:none;stroke-dashoffset:0;stroke-opacity:1;-inkscape-stroke:none;stop-color:#000000;stop-opacity:1"><path
         id="path1540"
         style="font-variation-settings:normal;vector-effect:none;fill:#047c90;fill-opacity:1;stroke:none;stroke-width:39.3403;stroke-linecap:round;stroke-linejoin:miter;stroke-miterlimit:4;stroke-dasharray:none;stroke-dashoffset:0;stroke-opacity:1;-inkscape-stroke:none;stop-color:#000000;stop-opacity:1"
         d="m -433.45703,36.023438 c -7.57033,-0.02872 -14.52273,0.522059 -19.37109,2.982421 56.49356,0.631427 112.99487,0.796473 169.48632,0.433594 11.17668,2.297711 -15.0863,3.226992 -17.5039,3.085938 -50.65651,-1.127429 -101.35207,-0.967478 -152,-1.583985 -0.2536,-3.867841 -14.73724,7.983698 55.60156,4.582032 29.18436,-0.220639 58.99726,0.395594 88.16601,-0.699219 4.26419,0.127578 37.57291,-1.67589 32.40625,17.578125 1.75156,24.207318 -6.16062,35.705536 -3.48828,53.482426 -8.25802,4.2853 -28.47771,0.18191 -41.17187,1.08984 -33.27637,-0.40063 -66.55294,0.27005 -99.82031,-0.79883 -9.9016,1.23746 -25.37997,-2.22436 -31.89844,2.53906 35.16738,2.18436 70.40185,-0.78266 105.61914,0.16016 22.72171,-1.35952 52.79056,2.2876 69.3166,1.18359 -0.0474,-0.0795 -0.11849,-0.13746 -0.19727,-0.18554 3.1034,0.0897 25.23883,1.21799 9.89453,-2.65039 -21.48039,-8.29384 -5.51672,-57.614494 -7.75195,-78.771488 -22.66468,-2.474248 -46.03834,-0.144491 -68.16602,-1.003906 -13.16566,-0.691254 -21.31997,-1.275008 -35.60156,-1.09375 -8.13875,-0.05085 -16.27759,-0.139187 -24.41602,-0.166016 -9.76468,0.07273 -19.37023,-0.127143 -29.10351,-0.164062 z m 42.91211,5.878906 c 6.41462,0.426889 -2.54056,2.115016 0,0 z m 8.29687,0.15625 c 9.26123,0.467251 -5.58107,1.220734 0,0 z m -51.43945,76.234376 c 8.39183,0.60457 -10.68655,0.28204 0,0 z m -19.36328,7.10351 c -3.04795,11.73235 15.58017,6.86933 22.53711,5.44727 36.77524,2.27799 71.01002,1.35824 105.72265,0.48047 13.61649,-0.86289 27.43509,3.33396 36.88672,1.15234 -0.0507,-0.003 -0.0831,-6.6e-4 -0.13281,-0.004 0.0511,-0.003 0.10321,-0.004 0.1543,-0.008 8.57331,-0.99528 30.81398,-6.75114 18.93164,8.83985 -6.05328,10.45447 -23.33279,13.86062 -29.25586,12.04883 -2.63493,12.2336 -32.56103,9.82325 -27.58594,3.6875 7.56973,3.80143 3.31591,-3.39722 9.04102,1.875 7.37003,1.73076 17.53298,-1.62341 3.98047,-3.52344 -8.58741,-2.58528 -14.06801,-5.93627 -19.31836,2.35742 -5.5359,4.55174 -22.03072,2.54387 -7.38086,-0.82617 8.2837,-11.49525 -26.89459,1.07229 -30.47071,-2.9336 -8.43834,-7.36501 -1.59784,-3.84498 -3.80273,1.32618 -8.36377,-3.46447 -12.6989,1.28729 -19.06836,-1.49805 -8.06023,5.84704 8.21745,-0.36259 1.625,6.42773 -5.18934,-0.96813 -17.11505,-13.25613 -12.41211,-1.65039 10.45929,3.55791 21.9333,7.60038 27.25586,-0.7207 23.09787,11.70188 49.92139,3.20484 74.31641,7.58789 -4.81034,0.62089 16.49563,-0.0266 13.95898,4.10742 -5.83368,1.0119 10.94216,0.8926 1.02734,-2.30664 -5.57611,-4.26028 16.57487,-3.28905 3.45313,-5.64453 -6.14685,-1.0174 -21.02191,-0.62414 -7.05859,-3.70508 13.99773,-5.41516 28.67284,-15.64917 31.00781,-31.58594 -64.47148,-0.11203 -128.94211,-0.51875 -193.41211,-0.93164 z m 12.80273,1.66211 c 9.26123,0.46727 -5.58107,1.22074 0,0 z m 1.70313,1.84381 c 6.41461,0.42688 -2.54056,2.11505 0,0 z m -4.19141,2.31836 c 11.57154,-0.13915 -4.56648,1.32265 0,0 z m -10.29297,9.87696 c 3.5916,5.1972 -4.71892,8.94796 3.75977,13.0332 5.1645,6.03501 -4.47228,8.15098 -5.95899,7.47266 2.59504,3.07964 6.51447,13.05301 8.82422,4.66992 3.68158,10.28454 3.0324,26.3357 -6.64648,33.40234 8.96678,5.53501 27.46823,5.73857 35.76367,17.50781 9.82573,9.39938 19.15755,28.69161 14.7793,39.36133 -10.97097,-4.71145 -14.92745,15.18012 -3.05664,8.48047 11.98682,7.35116 0.59087,26.11858 4.85937,37.79102 1.1331,21.24138 -1.29812,42.43255 -2.32422,63.625 -12.00892,-3.36695 -10.28793,25.04561 -3.6582,7.33398 3.29697,3.02123 4.94941,12.92454 4.54688,2.3418 -5.85404,-20.63118 20.68021,-18.97402 30.74609,-20.41602 2.74883,-5.84582 4.13815,-19.90355 -3.45117,-12.00195 -5.00282,-1.74422 -31.7776,2.07041 -18.0918,-6.77539 6.42939,-7.43151 30.46032,5.48847 15.16016,-3.84961 -5.80146,-1.02983 -28.40833,0.86776 -14.88086,-7.63867 7.03436,-3.17161 10.80972,-1.85558 20.29882,0.0234 -0.0177,12.46229 3.00238,1.95647 2.5254,-4.8164 -7.67634,1.58965 -21.68903,4.01928 -27.08399,-2.01563 3.78693,-9.68748 23.84621,-3.2028 23.38086,-4.68554 -10.46069,-1.46704 -4.36353,-1.48738 -3.11523,-2.44141 -4.80377,0.0709 -25.62182,0.77323 -16.07618,-6.67188 6.68254,-5.07445 20.98314,2.70171 22.01368,0.33204 -3.35396,-10.82041 14.84666,-15.87588 16.85742,-16.2168 -8.71749,-0.92702 -19.71264,0.80539 -15.00781,-11.25977 -1.61478,-15.34642 -31.22753,-1.6025 -28.34375,-14.61132 6.77097,-4.16209 23.85373,-4.56843 25.88671,1.51757 -14.03452,1.57403 8.51232,9.12672 11.76172,15.32618 4.54152,3.89637 11.52227,7.65152 3.4668,1.08984 -12.3287,-8.65413 -18.5811,-33.12513 -4.91797,-40.25 6.39474,-1.45447 13.14846,-1.63678 6.50781,-3.73047 4.69769,0.14493 2.64111,-6.47721 10.74219,-1.11719 8.5366,8.33808 -3.61617,3.4537 -5.88476,5.78711 0.0849,-1.32126 -1.71906,-0.55699 -0.55079,1.5 0.0831,-0.1441 0.14441,-0.2716 0.20704,-0.40039 0.0428,0.50938 0.27361,1.15243 0.75781,1.97461 -5.10364,-0.65836 -16.86892,11.20597 -13.56055,18.92188 -3.25875,11.26359 23.04913,24.19538 21.66211,18.39453 -17.89983,-4.73265 22.3609,0.47371 12.0957,-9.59766 5.43782,-2.2595 11.35549,9.81083 5.90235,-1.8418 -2.41998,-10.94666 8.69605,-14.35446 1.03711,-21.80859 -0.91992,-9.45807 -10.43117,-6.69065 -3.36719,0.89649 1.67277,7.94391 -11.46699,-4.18283 -6.85742,-10.4668 1.22633,-15.15074 16.19214,-0.25967 20.48437,7.00781 3.156,11.42835 0.88635,23.80518 1.42774,35.63281 -0.82384,22.26435 0.64575,44.51131 0.62304,66.74805 0.68483,8.99995 -7.96431,23.55051 -7.25586,7.11328 -0.23509,-2.41342 -0.36664,-4.82843 -0.42968,-7.24414 -0.14532,0.79902 -0.33738,1.58169 -0.5918,2.33594 4.10163,11.51898 -13.54397,14.06509 -6.76562,15.66015 9.00011,6.24315 17.33356,1.90284 19.26562,-7.80859 4.13804,2.74297 8.11601,15.85232 4.95508,4.20508 6.66478,5.63886 4.05157,7.39875 11.16015,2.58594 -12.75668,5.07013 -10.20402,-11.9677 -1.01562,-10.77344 -0.0831,-0.0299 -0.15975,-0.0502 -0.24414,-0.082 -5.48453,0.15527 -24.3078,-1.7822 -11.49219,-8.02539 12.0597,-7.52918 27.93033,10.51547 13.94531,8.71875 0.51208,0.21222 1.03476,0.45919 1.57618,0.78515 19.27783,4.53281 -3.18861,34.43515 13.38281,37.74805 -2.17003,-17.25009 -4.0515,-34.70212 -4.33399,-52.0293 -1.43244,-15.48374 0.32659,-30.99628 1.28125,-45.88086 -1.53881,-11.23012 1.04264,-16.34854 1.2387,-29.42108 -0.13361,-13.98988 -23.67548,-5.86857 -24.66824,-7.94026 12.98308,-1.91411 -12.23124,0.0979 -9.15625,-11.22657 -3.51327,-15.15253 23.34268,-12.66653 28.29297,-3.76562 -3.74609,3.24586 -27.4862,1.86086 -12.05079,6.25 10.64643,-1.52321 16.70786,2.84841 7.23633,8.52734 14.56602,1.38759 7.85062,-22.17105 9.58985,-32.44531 2.92918,-7.51751 -2.13102,-13.43869 -0.11524,-16.12109 3.38705,0.7127 -0.54338,-8.39372 -6.57226,-5.63672 -4.26463,-1.22855 -18.78725,-2.06311 -6.33204,-0.0117 14.14136,1.99663 -33.63457,0.20706 -12.21679,-7.88281 5.34243,-0.19568 28.48231,1.64606 13.67383,-4.70508 -5.52291,1.49218 -28.82886,2.54669 -15.08789,-5.16992 1.72721,-0.40196 28.52721,-3.42152 10.75195,-4.38868 -11.43651,-0.68632 -25.77027,3.88988 -30.25586,-0.44726 -14.43781,-6.83097 13.28841,-9.62862 19.60351,-6.68555 7.88761,2.15519 31.4115,4.21022 14.44727,-4.26172 -15.89123,0.69491 -31.18603,-0.27924 -46.92969,0.0664 -16.48738,0.80983 -33.02241,0.79303 -49.49804,-0.27149 11.51497,-3.18379 -4.20887,-1.26003 -0.76758,-3.71093 -7.05659,0.16023 -27.67766,-2.63371 -9.68555,-3.41797 13.71222,1.43897 -23.4802,-4.34278 -19.46094,2.57226 3.65738,2.78971 0.69647,-2.07227 8.24024,0.30664 7.0162,-0.36904 15.7848,2.86331 3.38281,3.60157 -10.46737,-0.35511 -27.22989,5.88915 -33.83008,-2.30664 6.05036,-9.54606 27.13061,0.3823 24.0625,-11.66602 8.25341,0.23365 -5.32552,-6.80061 -6.00586,1.22266 -7.65466,7.17784 -25.99403,-4.37082 -23.04101,14.63867 0.0759,7.58275 -1.4027,13.37211 -1.81836,2.48828 -0.73295,-11.52658 -1.02539,-24.31446 -9.70899,-33.05859 z m 164.77539,214.24414 c -0.77252,-0.32016 -1.50959,-0.52043 -2.20898,-0.61133 0.79501,0.28636 1.53111,0.48801 2.20898,0.61133 z m -29.21679,-6.81641 c 0.41984,-2.30852 0.3941,-4.76564 0.002,-7.17187 -0.0534,2.39102 -0.0643,4.7822 -0.002,7.17187 z m 0.002,-7.17187 c 0.22687,-10.14887 1.24518,-20.3058 1.08984,-30.4375 -0.8458,7.81225 -5.34311,14.09846 -15.10156,10.01171 -5.01951,0.0677 -13.30522,-1.58134 -9.74805,2.5918 -5.0404,-5.70492 -19.50511,-4.82067 -18.63671,-16.64844 -6.72525,9.02494 13.73273,14.348 9.62109,15.19922 -18.02157,7.28491 -8.98824,-23.1205 -12.29688,-26.50976 -6.91338,13.503 -4.56182,29.85834 9.35352,37.99609 7.81312,8.19831 29.20912,-0.2117 14.62695,-2.69922 10.06229,-10.10369 19.32407,-0.34795 21.0918,10.4961 z m 1.08986,-30.4375 c 0.31588,-2.91762 0.14006,-6.04212 -0.48632,-8.92774 0.30214,2.97327 0.44066,5.94922 0.48632,8.92774 z m -0.48632,-8.92774 c -0.46635,-5.69542 -0.7313,-4.26879 0,0 z m -36.99219,-13.04492 c 0.0502,0.005 0.10228,0.008 0.15234,0.0137 0.13596,-0.0525 0.0392,-0.0461 -0.15234,-0.0137 z m -90.02539,-136.44727 c 1.26372,5.27774 23.12654,8.52906 18.13867,3.17188 -6.54825,1.36118 -11.85241,-2.41941 -18.13867,-3.17188 z m 11.93359,9.37497 c 287.9661,180.08592 143.98305,90.04296 0,0 z m 150.6543,0.33981 c 187.5299,179.85938 93.76495,89.92969 0,0 z m -63.45313,11.42785 c 9.63408,6.01915 -9.93607,15.55114 -2.47461,1.83985 l 1.17969,-1.36914 z m -86.31445,0.0899 c 3.21096,10.78173 13.84399,-3.37109 25.3418,0.9746 17.66633,0.0242 35.33409,-0.0513 52.99609,-0.47265 -11.90811,4.32905 -24.44352,7.27421 -37.05859,8.45898 -8.27161,0.41867 -19.84385,0.29104 -11.87696,-1.22851 -7.48894,-2.33466 -16.9797,0.6026 -4.85351,3.32812 12.30514,1.81027 31.3988,-6.63939 37.74805,7.80469 -1.9464,-15.92964 20.4011,8.40455 3.04492,2.04102 -10.38531,-3.03547 -32.92217,-5.90452 -37.00586,-0.26954 8.88301,4.53182 32.12876,-4.64585 31.98437,7.49805 -7.71821,6.41038 -24.24159,-2.36297 -27.64843,3.25 7.30293,4.68263 31.10932,-3.69699 26.86523,8.05274 -6.44776,2.55027 -31.96963,-1.05185 -14.51367,5.02929 9.36676,-0.57856 35.73003,-3.36345 28.67578,11.13281 -4.40224,-0.9398 -6.89709,-2.11449 -5.26758,-0.3125 -7.37485,-5.65026 -19.66608,-7.51004 -24.9082,-2.89453 -7.41123,4.2468 18.11649,-1.16838 20.99023,4.68555 6.87464,10.65781 -16.68451,1.67274 -22.87305,4.36328 -9.20895,10.35109 -17.17013,-14.53793 -24.95898,-17.48633 -4.11945,-1.36045 2.55721,-17.90861 -4.61328,-8.8789 -9.48234,4.87168 -1.45068,-16.54827 -10.86719,-5.4961 -19.20705,3.7749 -16.23198,-27.55448 -1.20117,-29.58007 z m 97.23633,0.92968 c 11.0833,2.79209 -2.08134,18.53207 -0.91602,4.4043 -0.0412,-1.05407 -1.03449,-4.01818 0.91602,-4.4043 z m -116.45117,1.84375 c -7.18799,9.54255 -1.32559,12.57565 2.75195,7.78711 2.38318,-5.53076 -6.71243,5.73738 -3.26172,-4.57226 z m 94.56836,11.82422 c 237.13927,162.44911 118.56964,81.22456 0,0 z m 0,0 c 237.13927,162.44911 118.56964,81.22456 0,0 z m -59.4629,-3.39846 c -5.01852,3.00534 -8.74379,18.74578 -2.43359,6.09375 0.66597,-2.03451 2.36856,-3.85493 2.43359,-6.09375 z m -15.17773,2.01364 c -5.88121,6.09882 -2.82567,19.80953 -0.36719,6.26171 0.18715,-1.95886 1.41752,-4.44992 0.36719,-6.26171 z m 98.16016,0.20707 c 11.03279,7.50052 -6.88115,5.03537 0,0 z m 19.77539,0.41015 c 4.18617,4.49817 5.43276,27.57343 0.69726,24.37305 -4.13828,-10.52333 -4.73178,-23.68923 -1.80273,-23.38867 l 0.86523,-0.9668 z m -7.78125,2.7461 c 5.08348,2.81084 4.40682,15.24629 -0.46094,4.45117 -2.1257,-3.963 -7.5431,-1.22161 0.46094,-4.45117 z m -27.35157,1.37893 c 4.47501,6.21573 6.57573,20.14655 7.39454,24.01368 -6.55326,-0.84898 -24.52849,-3.09295 -8.1836,-2.90235 8.75527,-1.24782 -0.81857,-16.7679 -2.43554,-8.31445 -3.69724,-1.70548 -5.4093,-13.00356 0.18554,-6.36524 0.82133,-1.73254 0.64625,-5.82081 3.03906,-6.43164 z m 12.48047,0.75196 c 4.26644,4.1532 17.72723,6.22919 5.71094,10.10156 -2.17711,14.25639 -7.80121,-1.44759 -4.5918,-0.68164 6.27418,5.21285 -3.09751,-8.3581 -1.11914,-9.41992 z m -70.97461,3.35552 c -9.08133,4.11161 0.0342,5.50828 0,0 z m 40.4336,2.53329 c 10.93496,2.06244 -1.20211,11.23384 -1.83594,10.26367 -0.84464,-2.80127 -2.60529,-9.63329 1.83594,-10.26367 z m 44.92187,4.85937 c -2.88362,5.92906 0.94003,1.64869 3.19727,4.10157 -8.56888,7.33096 8.62354,2.40223 -0.71094,5.86132 -7.04248,0.64372 -13.47235,3.39175 -17.34961,10.72656 6.92504,-11.53973 -3.33227,-7.1248 14.86328,-20.68946 z m -53.85937,0.72071 c 6.41461,0.42688 -2.54056,2.11505 0,0 z m 14.02734,0.86128 c 3.70627,2.17555 -1.22412,4.16832 0,0 z m 70.95703,0.45122 c 9.4744,0.15611 12.11445,12.45693 -0.77734,8.91601 -6.94198,2.59714 -26.05358,-3.02454 -10.29102,-7.60351 2.9544,-0.80258 6.02167,-1.21534 9.08399,-1.17383 0.68979,-0.10585 1.35275,-0.14908 1.98437,-0.13867 z m -19.75586,11.45508 c 1.2565,0.0371 2.58366,0.22756 3.96875,0.59179 5.74269,-0.12559 11.48508,0.19837 17.20899,-0.39258 11.5552,-0.0222 5.5934,8.507 -1.53711,10.44922 3.98418,0.34801 6.79792,1.71149 8.24219,6.61133 -12.94431,1.00369 -23.48241,4.54081 -33.21485,3.41016 -12.3672,-7.18078 -6.81407,-21.02832 5.33203,-20.66992 z m 19.64063,10.64843 c -1.62905,-0.14229 -3.4951,-0.11681 -5.50391,-0.0898 1.72338,0.65039 3.65165,0.59444 5.50391,0.0898 z m -5.50391,-0.0898 c -0.82148,-0.31002 -1.59887,-0.77404 -2.29492,-1.43555 22.5265,-2.15554 -26.21716,-0.22589 -7.16406,1.06446 3.50454,0.44172 6.64044,0.40882 9.45898,0.37109 z m -56.28125,-9.48047 c 11.29818,5.68695 -2.81048,13.05002 -3.48633,2.16016 0.59645,-1.32284 2.01959,-2.2511 3.48633,-2.16016 z m 23.83399,0.71679 c 13.76105,5.14687 -10.21885,13.55555 -2.38282,0.52539 z m -10.06641,8.88279 c 6.87344,0.25808 8.25462,6.57659 -0.39844,3.52734 -3.33572,0.0203 -8.35695,-3.5679 -1.04882,-3.49414 0.50569,-0.0413 0.98903,-0.0504 1.44726,-0.0332 z m -38.52344,18.06246 c -10.54852,3.6141 -33.82297,0.0253 -12.18945,-6.92188 8.54894,-1.86698 30.35878,4.68566 12.18945,6.92188 z m 40.30664,-5.64063 c 0.26111,5.18963 3.61964,17.68183 4.37696,18.25196 -10.79348,-0.31567 -9.14347,-6.65323 -7.4961,-6.20899 -6.62214,-3.7921 2.39258,-7.11736 3.11914,-12.04297 z m -9.37109,5.125 c 6.30936,1.03944 -6.53331,3.7966 0,0 z m -30.86328,3.35542 c 13.96282,-0.0519 1.12408,10.67799 -3.7127,8.77394 -8.73427,-0.12366 -24.0249,-1.05811 -10.58613,-6.07472 4.57107,-1.6565 9.41975,-2.72393 14.29883,-2.69922 z M -346,256.53125 c 6.90456,2.65024 6.90187,12.17441 0.0254,4.11523 -0.13252,-0.60978 -1.71715,-3.54231 -0.0254,-4.11523 z m -58.51758,2.87118 c -4.15308,6.5486 -11.62591,5.38819 0,0 z m 118.3086,10.53125 c 12.78257,3.956 2.25713,13.46565 -6.56446,9.05469 -9.57372,3.53738 -16.82461,-4.71653 -4.33789,-7.77539 11.62335,-1.8886 -16.91605,-1.41417 -2.64844,-2.73047 5.54774,-0.12485 18.64119,-1.25495 4.87305,-2.00586 -7.95528,1.08214 -18.20657,-3.87605 -4.23242,-5.44922 3.03083,-0.50599 6.10038,-0.79126 9.17383,-0.8125 8.92512,-0.11053 13.33118,9.57066 3.73633,9.71875 z m -66.88282,-7.52539 c 9.79647,0.35646 5.87364,16.0424 -1.5039,9.07813 10.22547,-3.75263 -5.90342,-9.04058 1.5039,-9.07815 z m 22.11133,1.37305 c 0.34454,0.005 0.73355,0.024 1.17188,0.0605 14.7264,-1.07189 -9.05788,13.65187 1.82226,2.90625 -3.17763,0.20727 -8.16216,-3.04309 -2.99414,-2.9668 z m -51.25781,1.94727 c -4.20156,0.15269 -5.93357,2.48416 4.375,0.68945 -1.18394,-0.44984 -2.39912,-0.64862 -3.50391,-0.68945 -0.29921,-0.0111 -0.59099,-0.0102 -0.87109,0 z m 46.11914,0.82226 c 11.77507,9.36346 -8.51854,7.6927 0,0 z m 46.93945,3.17578 c -0.61503,0.0149 -1.40039,0.0489 -2.3789,0.10742 l -1.85547,0.31641 c 4.50196,0.28913 8.53961,-0.52847 4.23437,-0.42383 z m -89.92773,0.70508 c 29.16519,10.21004 -41.05945,12.17092 -10.61328,1.50195 2.8373,-0.78874 5.77846,-1.23772 8.72656,-1.23437 0.65589,-0.15755 1.28554,-0.24284 1.88672,-0.26758 z m 15.17383,0.63477 c 1.28191,4.98714 13.32124,13.53056 4.53906,4.13476 -1.49309,-1.34998 -2.73462,-3.17906 -4.53906,-4.13476 z m -44.875,2.46875 c -1.52208,7.18831 3.31733,6.64745 0,0 z m 90.78906,6.55078 c 1.59093,11.05458 -13.25746,8.32458 -20.40625,9.51367 9.4486,1.38975 32.62213,6.12808 20.40625,-9.51367 z m 28.11719,0.19335 c 193.268227,101.14708 96.63411,50.57354 0,0 z m 0.30273,0.32031 c 8.4785,-0.25207 13.61958,13.75496 1.28125,10.23047 -5.39141,-2.76835 -19.67707,3.22738 -17.57617,-6.5918 5.38937,-2.6966 10.97132,-3.16898 16.29492,-3.63867 z m -92.17578,0.14844 c 8.26751,-0.31212 12.61764,5.88693 4.625,10.17006 -7.54545,2.52558 -30.1669,-3.75161 -12.28125,-9.11524 4.72195,-0.60867 4.73846,-0.6066 7.65625,-1.05482 z m -27.11523,4.0039 c -3.82935,12.4744 0.23965,25.76859 -1.57422,38.80664 0.2388,13.77809 1.94611,27.56794 0.71875,41.34375 5.68922,-11.0215 1.9573,-24.55131 2.6582,-36.67382 -0.7972,-13.59342 0.18088,-27.35037 -0.29688,-40.83594 -0.51613,-0.59293 -0.29222,-2.55316 -1.50585,-2.64063 z m 60.86914,4.33594 -3.11133,0.0684 c 4.97475,0.51071 19.11304,0.61815 6.28711,0.004 z m 59.2871,2.55664 c 6.96594,0.27137 13.35864,4.37851 2.10743,8.14649 -4.97582,2.44572 4.32271,1.79693 -5.38672,2.04687 -5.67621,-0.20047 -14.42699,0.57643 -4.24414,-1.23242 -10.63969,1.29049 -13.13925,-6.38178 -1.81446,-7.375 1.83909,-0.86397 5.03363,-0.21212 6.36719,-1.45508 0.96878,-0.1299 1.97559,-0.16963 2.9707,-0.13086 z m -98.29492,0.67188 c 7.30618,0.10269 21.62587,2.77454 9.10157,9.44531 -7.17339,3.867 -30.76556,-2.45154 -13.47461,-9.0586 l 3.01562,-0.37304 c 0.41471,-0.0156 0.87034,-0.0205 1.35742,-0.0137 z m 62.54102,3.29882 c -10.43276,3.61969 -23.56088,-0.20938 -32.42969,2.52344 12.04356,5.49736 36.86518,-9.16065 32.94336,14.25 0.0632,9.70205 -20.7094,5.7084 -5.80469,7.74024 10.54137,2.12014 17.17947,-24.80213 5.29102,-24.51368 z m 36.5332,6.51368 c 12.09424,-0.16225 -0.83308,12.58386 2.39063,11.34375 9.28994,6.14898 -8.84662,11.10698 3.28125,13.36523 6.44029,8.66281 -14.00965,5.89248 -1.35157,9.19531 7.92888,7.98182 -0.6388,7.60888 -6.58984,7.11914 -5.17512,-0.78278 -17.40165,2.54103 -16.48047,-4.51172 4.28011,-4.57512 17.25405,-4.04025 4.87696,-5.56054 -17.74534,-7.05615 21.03327,-11.42385 3.10156,-10.07422 -17.1772,2.12588 -3.52868,-16.03746 6.61718,-9.38867 2.79222,-2.45349 -25.68349,-0.91597 -11.06054,-10.71289 5.1393,-1.54342 10.02047,0.74384 15.21484,-0.77539 z m -82.75781,5.54687 c -0.62115,1.84295 -1.97476,3.14579 -2.64649,3.69141 0.42384,-0.29266 1.20752,-0.79724 2.625,-1.60157 l 0.0899,-1.96679 z m -16.49219,5.08594 c 0.0856,-0.004 0.26627,6.9e-4 0.58594,0.0254 -0.2462,0.0822 -0.84269,-0.0136 -0.58594,-0.0254 z m 99.21875,0.22656 -2.25195,0.1836 z m -4.39648,10.58984 c 5.91213,1.28758 5.58032,-0.11608 0,0 z m -92.41211,0.32813 -1.30664,0.10352 z m 94.34765,9.9316 c -1.03909,0.007 -2.61829,0.0757 -4.75585,0.25781 6.12767,0.26069 7.87314,-0.27877 4.75585,-0.25781 z m -94.79296,10.35547 c 256.82682,58.53773 128.41341,29.26887 0,0 z m 89.29296,0.11333 c 197.29818,58.46218 98.64909,29.23109 0,0 z m -84.20507,0.83589 c 8.28973,0.54641 9.92174,7.28603 -0.22657,8.68359 -6.93225,2.87578 -26.66488,-1.16588 -12.88645,-6.88105 3.29038,-0.96357 8.01152,-1.86928 13.11302,-1.80254 z m -10.24024,10.46484 c 260.26172,50.92836 130.13086,25.46418 0,0 z m 27.79297,9.67578 c -6.64186,0.0921 -8.73463,2.71413 0.94531,2.90235 5.57513,0.5745 28.00771,-0.17416 11.29297,-2.2793 -3.03489,-0.30459 -6.08448,-0.47477 -9.13476,-0.49219 -1.11349,-0.10448 -2.15468,-0.14402 -3.10352,-0.13086 z"
         inkscape:connector-curvature="0"
         sodipodi:nodetypes="cccccccccccccccccccccccccccccccccccccccccccccccccccccccccccccccccccccccccccccccccccccccccccccccccccccccccccccccccccccccccccccccccccccccccccccccccccccccccccccccccccccccccccccccccccccccccccccccccccccccccccccccccccccccccccccccccccccccccccccccccccccccccccccccccccccccccccccccccccccccccccccccccccccccccccccccccccccccccccccccccccccccccccccccccccccccccccccccccccccccccccccccccccccccccccccccccccccccccccccccccccccccccccccccccccccccccccccccc" /><path
         sodipodi:nodetypes="cccccccccccccccccccccccccccccccccccccccccccccccccccccccccccccccccccccccccccccccccccccccccccccccccccccccccccccccccccccccccccccccccccccccccccccccccccccccccccccccccccccccccccccccccccccccccccccccccccccccccccccccccccccccccccccccccccccccccccccccccccccccccccccccccccccccccccccccccccccccccccccccccccccccccccccccccccccccccccccccccccccccccccccccccccccccccccccccccccccccccccccccccccccccccccccccccccccccccccccccccccccccccccccccccccccccccccccccc"
         inkscape:connector-curvature="0"
         d="m -472.64453,36.023438 c 7.57033,-0.02872 14.52273,0.522059 19.37109,2.982421 -56.49356,0.631427 -112.99487,0.796473 -169.48632,0.433594 -11.17668,2.297711 15.0863,3.226992 17.5039,3.085938 50.65651,-1.127429 101.35207,-0.967478 152,-1.583985 0.2536,-3.867841 14.73724,7.983698 -55.60156,4.582032 -29.18436,-0.220639 -58.99726,0.395594 -88.16601,-0.699219 -4.26419,0.127578 -37.57291,-1.67589 -32.40625,17.578125 -1.75156,24.207318 6.16062,35.705536 3.48828,53.482426 8.25802,4.2853 28.47771,0.18191 41.17187,1.08984 33.27637,-0.40063 66.55294,0.27005 99.82031,-0.79883 9.9016,1.23746 25.37997,-2.22436 31.89844,2.53906 -35.16738,2.18436 -70.40185,-0.78266 -105.61914,0.16016 -22.72171,-1.35952 -52.79056,2.2876 -69.3166,1.18359 0.0474,-0.0795 0.11849,-0.13746 0.19727,-0.18554 -3.1034,0.0897 -25.23883,1.21799 -9.89453,-2.65039 21.48039,-8.29384 5.51672,-57.614494 7.75195,-78.771488 22.66468,-2.474248 46.03834,-0.144491 68.16602,-1.003906 13.16566,-0.691254 21.31997,-1.275008 35.60156,-1.09375 8.13875,-0.05085 16.27759,-0.139187 24.41602,-0.166016 9.76468,0.07273 19.37023,-0.127143 29.10351,-0.164062 z m -42.91211,5.878906 c -6.41462,0.426889 2.54056,2.115016 0,0 z m -8.29687,0.15625 c -9.26123,0.467251 5.58107,1.220734 0,0 z m 51.43945,76.234376 c -8.39183,0.60457 10.68655,0.28204 0,0 z m 19.36328,7.10351 c 3.04795,11.73235 -15.58017,6.86933 -22.53711,5.44727 -36.77524,2.27799 -71.01002,1.35824 -105.72265,0.48047 -13.61649,-0.86289 -27.43509,3.33396 -36.88672,1.15234 0.0507,-0.003 0.0831,-6.6e-4 0.13281,-0.004 -0.0511,-0.003 -0.10321,-0.004 -0.1543,-0.008 -8.57331,-0.99528 -30.81398,-6.75114 -18.93164,8.83985 6.05328,10.45447 23.33279,13.86062 29.25586,12.04883 2.63493,12.2336 32.56103,9.82325 27.58594,3.6875 -7.56973,3.80143 -3.31591,-3.39722 -9.04102,1.875 -7.37003,1.73076 -17.53298,-1.62341 -3.98047,-3.52344 8.58741,-2.58528 14.06801,-5.93627 19.31836,2.35742 5.5359,4.55174 22.03072,2.54387 7.38086,-0.82617 -8.2837,-11.49525 26.89459,1.07229 30.47071,-2.9336 8.43834,-7.36501 1.59784,-3.84498 3.80273,1.32618 8.36377,-3.46447 12.6989,1.28729 19.06836,-1.49805 8.06023,5.84704 -8.21745,-0.36259 -1.625,6.42773 5.18934,-0.96813 17.11505,-13.25613 12.41211,-1.65039 -10.45929,3.55791 -21.9333,7.60038 -27.25586,-0.7207 -23.09787,11.70188 -49.92139,3.20484 -74.31641,7.58789 4.81034,0.62089 -16.49563,-0.0266 -13.95898,4.10742 5.83368,1.0119 -10.94216,0.8926 -1.02734,-2.30664 5.57611,-4.26028 -16.57487,-3.28905 -3.45313,-5.64453 6.14685,-1.0174 21.02191,-0.62414 7.05859,-3.70508 -13.99773,-5.41516 -28.67284,-15.64917 -31.00781,-31.58594 64.47148,-0.11203 128.94211,-0.51875 193.41211,-0.93164 z m -12.80273,1.66211 c -9.26123,0.46727 5.58107,1.22074 0,0 z m -1.70313,1.84381 c -6.41461,0.42688 2.54056,2.11505 0,0 z m 4.19141,2.31836 c -11.57154,-0.13915 4.56648,1.32265 0,0 z m 10.29297,9.87696 c -3.5916,5.1972 4.71892,8.94796 -3.75977,13.0332 -5.1645,6.03501 4.47228,8.15098 5.95899,7.47266 -2.59504,3.07964 -6.51447,13.05301 -8.82422,4.66992 -3.68158,10.28454 -3.0324,26.3357 6.64648,33.40234 -8.96678,5.53501 -27.46823,5.73857 -35.76367,17.50781 -9.82573,9.39938 -19.15755,28.69161 -14.7793,39.36133 10.97097,-4.71145 14.92745,15.18012 3.05664,8.48047 -11.98682,7.35116 -0.59087,26.11858 -4.85937,37.79102 -1.1331,21.24138 1.29812,42.43255 2.32422,63.625 12.00892,-3.36695 10.28793,25.04561 3.6582,7.33398 -3.29697,3.02123 -4.94941,12.92454 -4.54688,2.3418 5.85404,-20.63118 -20.68021,-18.97402 -30.74609,-20.41602 -2.74883,-5.84582 -4.13815,-19.90355 3.45117,-12.00195 5.00282,-1.74422 31.7776,2.07041 18.0918,-6.77539 -6.42939,-7.43151 -30.46032,5.48847 -15.16016,-3.84961 5.80146,-1.02983 28.40833,0.86776 14.88086,-7.63867 -7.03436,-3.17161 -10.80972,-1.85558 -20.29882,0.0234 0.0177,12.46229 -3.00238,1.95647 -2.5254,-4.8164 7.67634,1.58965 21.68903,4.01928 27.08399,-2.01563 -3.78693,-9.68748 -23.84621,-3.2028 -23.38086,-4.68554 10.46069,-1.46704 4.36353,-1.48738 3.11523,-2.44141 4.80377,0.0709 25.62182,0.77323 16.07618,-6.67188 -6.68254,-5.07445 -20.98314,2.70171 -22.01368,0.33204 3.35396,-10.82041 -14.84666,-15.87588 -16.85742,-16.2168 8.71749,-0.92702 19.71264,0.80539 15.00781,-11.25977 1.61478,-15.34642 31.22753,-1.6025 28.34375,-14.61132 -6.77097,-4.16209 -23.85373,-4.56843 -25.88671,1.51757 14.03452,1.57403 -8.51232,9.12672 -11.76172,15.32618 -4.54152,3.89637 -11.52227,7.65152 -3.4668,1.08984 12.3287,-8.65413 18.5811,-33.12513 4.91797,-40.25 -6.39474,-1.45447 -13.14846,-1.63678 -6.50781,-3.73047 -4.69769,0.14493 -2.64111,-6.47721 -10.74219,-1.11719 -8.5366,8.33808 3.61617,3.4537 5.88476,5.78711 -0.0849,-1.32126 1.71906,-0.55699 0.55079,1.5 -0.0831,-0.1441 -0.14441,-0.2716 -0.20704,-0.40039 -0.0428,0.50938 -0.27361,1.15243 -0.75781,1.97461 5.10364,-0.65836 16.86892,11.20597 13.56055,18.92188 3.25875,11.26359 -23.04913,24.19538 -21.66211,18.39453 17.89983,-4.73265 -22.3609,0.47371 -12.0957,-9.59766 -5.43782,-2.2595 -11.35549,9.81083 -5.90235,-1.8418 2.41998,-10.94666 -8.69605,-14.35446 -1.03711,-21.80859 0.91992,-9.45807 10.43117,-6.69065 3.36719,0.89649 -1.67277,7.94391 11.46699,-4.18283 6.85742,-10.4668 -1.22633,-15.15074 -16.19214,-0.25967 -20.48437,7.00781 -3.156,11.42835 -0.88635,23.80518 -1.42774,35.63281 0.82384,22.26435 -0.64575,44.51131 -0.62304,66.74805 -0.68483,8.99995 7.96431,23.55051 7.25586,7.11328 0.23509,-2.41342 0.36664,-4.82843 0.42968,-7.24414 0.14532,0.79902 0.33738,1.58169 0.5918,2.33594 -4.10163,11.51898 13.54397,14.06509 6.76562,15.66015 -9.00011,6.24315 -17.33356,1.90284 -19.26562,-7.80859 -4.13804,2.74297 -8.11601,15.85232 -4.95508,4.20508 -6.66478,5.63886 -4.05157,7.39875 -11.16015,2.58594 12.75668,5.07013 10.20402,-11.9677 1.01562,-10.77344 0.0831,-0.0299 0.15975,-0.0502 0.24414,-0.082 5.48453,0.15527 24.3078,-1.7822 11.49219,-8.02539 -12.0597,-7.52918 -27.93033,10.51547 -13.94531,8.71875 -0.51208,0.21222 -1.03476,0.45919 -1.57618,0.78515 -19.27783,4.53281 3.18861,34.43515 -13.38281,37.74805 2.17003,-17.25009 4.0515,-34.70212 4.33399,-52.0293 1.43244,-15.48374 -0.32659,-30.99628 -1.28125,-45.88086 1.53881,-11.23012 -1.04264,-16.34854 -1.2387,-29.42108 0.13361,-13.98988 23.67548,-5.86857 24.66824,-7.94026 -12.98308,-1.91411 12.23124,0.0979 9.15625,-11.22657 3.51327,-15.15253 -23.34268,-12.66653 -28.29297,-3.76562 3.74609,3.24586 27.4862,1.86086 12.05079,6.25 -10.64643,-1.52321 -16.70786,2.84841 -7.23633,8.52734 -14.56602,1.38759 -7.85062,-22.17105 -9.58985,-32.44531 -2.92918,-7.51751 2.13102,-13.43869 0.11524,-16.12109 -3.38705,0.7127 0.54338,-8.39372 6.57226,-5.63672 4.26463,-1.22855 18.78725,-2.06311 6.33204,-0.0117 -14.14136,1.99663 33.63457,0.20706 12.21679,-7.88281 -5.34243,-0.19568 -28.48231,1.64606 -13.67383,-4.70508 5.52291,1.49218 28.82886,2.54669 15.08789,-5.16992 -1.72721,-0.40196 -28.52721,-3.42152 -10.75195,-4.38868 11.43651,-0.68632 25.77027,3.88988 30.25586,-0.44726 14.43781,-6.83097 -13.28841,-9.62862 -19.60351,-6.68555 -7.88761,2.15519 -31.4115,4.21022 -14.44727,-4.26172 15.89123,0.69491 31.18603,-0.27924 46.92969,0.0664 16.48738,0.80983 33.02241,0.79303 49.49804,-0.27149 -11.51497,-3.18379 4.20887,-1.26003 0.76758,-3.71093 7.05659,0.16023 27.67766,-2.63371 9.68555,-3.41797 -13.71222,1.43897 23.4802,-4.34278 19.46094,2.57226 -3.65738,2.78971 -0.69647,-2.07227 -8.24024,0.30664 -7.0162,-0.36904 -15.7848,2.86331 -3.38281,3.60157 10.46737,-0.35511 27.22989,5.88915 33.83008,-2.30664 -6.05036,-9.54606 -27.13061,0.3823 -24.0625,-11.66602 -8.25341,0.23365 5.32552,-6.80061 6.00586,1.22266 7.65466,7.17784 25.99403,-4.37082 23.04101,14.63867 -0.0759,7.58275 1.4027,13.37211 1.81836,2.48828 0.73295,-11.52658 1.02539,-24.31446 9.70899,-33.05859 z m -164.77539,214.24414 c 0.77252,-0.32016 1.50959,-0.52043 2.20898,-0.61133 -0.79501,0.28636 -1.53111,0.48801 -2.20898,0.61133 z m 29.21679,-6.81641 c -0.41984,-2.30852 -0.3941,-4.76564 -0.002,-7.17187 0.0534,2.39102 0.0643,4.7822 0.002,7.17187 z m -0.002,-7.17187 c -0.22687,-10.14887 -1.24518,-20.3058 -1.08984,-30.4375 0.8458,7.81225 5.34311,14.09846 15.10156,10.01171 5.01951,0.0677 13.30522,-1.58134 9.74805,2.5918 5.0404,-5.70492 19.50511,-4.82067 18.63671,-16.64844 6.72525,9.02494 -13.73273,14.348 -9.62109,15.19922 18.02157,7.28491 8.98824,-23.1205 12.29688,-26.50976 6.91338,13.503 4.56182,29.85834 -9.35352,37.99609 -7.81312,8.19831 -29.20912,-0.2117 -14.62695,-2.69922 -10.06229,-10.10369 -19.32407,-0.34795 -21.0918,10.4961 z m -1.08986,-30.4375 c -0.31588,-2.91762 -0.14006,-6.04212 0.48632,-8.92774 -0.30214,2.97327 -0.44066,5.94922 -0.48632,8.92774 z m 0.48632,-8.92774 c 0.46635,-5.69542 0.7313,-4.26879 0,0 z m 36.99219,-13.04492 c -0.0502,0.005 -0.10228,0.008 -0.15234,0.0137 -0.13596,-0.0525 -0.0392,-0.0461 0.15234,-0.0137 z m 90.02539,-136.44727 c -1.26372,5.27774 -23.12654,8.52906 -18.13867,3.17188 6.54825,1.36118 11.85241,-2.41941 18.13867,-3.17188 z m -11.93359,9.37497 c -287.9661,180.08592 -143.98305,90.04296 0,0 z m -150.6543,0.33981 c -187.5299,179.85938 -93.76495,89.92969 0,0 z m 63.45313,11.42785 c -9.63408,6.01915 9.93607,15.55114 2.47461,1.83985 l -1.17969,-1.36914 z m 86.31445,0.0899 c -3.21096,10.78173 -13.84399,-3.37109 -25.3418,0.9746 -17.66633,0.0242 -35.33409,-0.0513 -52.99609,-0.47265 11.90811,4.32905 24.44352,7.27421 37.05859,8.45898 8.27161,0.41867 19.84385,0.29104 11.87696,-1.22851 7.48894,-2.33466 16.9797,0.6026 4.85351,3.32812 -12.30514,1.81027 -31.3988,-6.63939 -37.74805,7.80469 1.9464,-15.92964 -20.4011,8.40455 -3.04492,2.04102 10.38531,-3.03547 32.92217,-5.90452 37.00586,-0.26954 -8.88301,4.53182 -32.12876,-4.64585 -31.98437,7.49805 7.71821,6.41038 24.24159,-2.36297 27.64843,3.25 -7.30293,4.68263 -31.10932,-3.69699 -26.86523,8.05274 6.44776,2.55027 31.96963,-1.05185 14.51367,5.02929 -9.36676,-0.57856 -35.73003,-3.36345 -28.67578,11.13281 4.40224,-0.9398 6.89709,-2.11449 5.26758,-0.3125 7.37485,-5.65026 19.66608,-7.51004 24.9082,-2.89453 7.41123,4.2468 -18.11649,-1.16838 -20.99023,4.68555 -6.87464,10.65781 16.68451,1.67274 22.87305,4.36328 9.20895,10.35109 17.17013,-14.53793 24.95898,-17.48633 4.11945,-1.36045 -2.55721,-17.90861 4.61328,-8.8789 9.48234,4.87168 1.45068,-16.54827 10.86719,-5.4961 19.20705,3.7749 16.23198,-27.55448 1.20117,-29.58007 z m -97.23633,0.92968 c -11.0833,2.79209 2.08134,18.53207 0.91602,4.4043 0.0412,-1.05407 1.03449,-4.01818 -0.91602,-4.4043 z m 116.45117,1.84375 c 7.18799,9.54255 1.32559,12.57565 -2.75195,7.78711 -2.38318,-5.53076 6.71243,5.73738 3.26172,-4.57226 z m -94.56836,11.82422 c -237.13927,162.44911 -118.56964,81.22456 0,0 z m 0,0 c -237.13927,162.44911 -118.56964,81.22456 0,0 z m 59.4629,-3.39846 c 5.01852,3.00534 8.74379,18.74578 2.43359,6.09375 -0.66597,-2.03451 -2.36856,-3.85493 -2.43359,-6.09375 z m 15.17773,2.01364 c 5.88121,6.09882 2.82567,19.80953 0.36719,6.26171 -0.18715,-1.95886 -1.41752,-4.44992 -0.36719,-6.26171 z m -98.16016,0.20707 c -11.03279,7.50052 6.88115,5.03537 0,0 z m -19.77539,0.41015 c -4.18617,4.49817 -5.43276,27.57343 -0.69726,24.37305 4.13828,-10.52333 4.73178,-23.68923 1.80273,-23.38867 l -0.86523,-0.9668 z m 7.78125,2.7461 c -5.08348,2.81084 -4.40682,15.24629 0.46094,4.45117 2.1257,-3.963 7.5431,-1.22161 -0.46094,-4.45117 z m 27.35157,1.37893 c -4.47501,6.21573 -6.57573,20.14655 -7.39454,24.01368 6.55326,-0.84898 24.52849,-3.09295 8.1836,-2.90235 -8.75527,-1.24782 0.81857,-16.7679 2.43554,-8.31445 3.69724,-1.70548 5.4093,-13.00356 -0.18554,-6.36524 -0.82133,-1.73254 -0.64625,-5.82081 -3.03906,-6.43164 z m -12.48047,0.75196 c -4.26644,4.1532 -17.72723,6.22919 -5.71094,10.10156 2.17711,14.25639 7.80121,-1.44759 4.5918,-0.68164 -6.27418,5.21285 3.09751,-8.3581 1.11914,-9.41992 z m 70.97461,3.35552 c 9.08133,4.11161 -0.0342,5.50828 0,0 z m -40.4336,2.53329 c -10.93496,2.06244 1.20211,11.23384 1.83594,10.26367 0.84464,-2.80127 2.60529,-9.63329 -1.83594,-10.26367 z m -44.92187,4.85937 c 2.88362,5.92906 -0.94003,1.64869 -3.19727,4.10157 8.56888,7.33096 -8.62354,2.40223 0.71094,5.86132 7.04248,0.64372 13.47235,3.39175 17.34961,10.72656 -6.92504,-11.53973 3.33227,-7.1248 -14.86328,-20.68946 z m 53.85937,0.72071 c -6.41461,0.42688 2.54056,2.11505 0,0 z m -14.02734,0.86128 c -3.70627,2.17555 1.22412,4.16832 0,0 z m -70.95703,0.45122 c -9.4744,0.15611 -12.11445,12.45693 0.77734,8.91601 6.94198,2.59714 26.05358,-3.02454 10.29102,-7.60351 -2.9544,-0.80258 -6.02167,-1.21534 -9.08399,-1.17383 -0.68979,-0.10585 -1.35275,-0.14908 -1.98437,-0.13867 z m 19.75586,11.45508 c -1.2565,0.0371 -2.58366,0.22756 -3.96875,0.59179 -5.74269,-0.12559 -11.48508,0.19837 -17.20899,-0.39258 -11.5552,-0.0222 -5.5934,8.507 1.53711,10.44922 -3.98418,0.34801 -6.79792,1.71149 -8.24219,6.61133 12.94431,1.00369 23.48241,4.54081 33.21485,3.41016 12.3672,-7.18078 6.81407,-21.02832 -5.33203,-20.66992 z m -19.64063,10.64843 c 1.62905,-0.14229 3.4951,-0.11681 5.50391,-0.0898 -1.72338,0.65039 -3.65165,0.59444 -5.50391,0.0898 z m 5.50391,-0.0898 c 0.82148,-0.31002 1.59887,-0.77404 2.29492,-1.43555 -22.5265,-2.15554 26.21716,-0.22589 7.16406,1.06446 -3.50454,0.44172 -6.64044,0.40882 -9.45898,0.37109 z m 56.28125,-9.48047 c -11.29818,5.68695 2.81048,13.05002 3.48633,2.16016 -0.59645,-1.32284 -2.01959,-2.2511 -3.48633,-2.16016 z m -23.83399,0.71679 c -13.76105,5.14687 10.21885,13.55555 2.38282,0.52539 z m 10.06641,8.88279 c -6.87344,0.25808 -8.25462,6.57659 0.39844,3.52734 3.33572,0.0203 8.35695,-3.5679 1.04882,-3.49414 -0.50569,-0.0413 -0.98903,-0.0504 -1.44726,-0.0332 z m 38.52344,18.06246 c 10.54852,3.6141 33.82297,0.0253 12.18945,-6.92188 -8.54894,-1.86698 -30.35878,4.68566 -12.18945,6.92188 z m -40.30664,-5.64063 c -0.26111,5.18963 -3.61964,17.68183 -4.37696,18.25196 10.79348,-0.31567 9.14347,-6.65323 7.4961,-6.20899 6.62214,-3.7921 -2.39258,-7.11736 -3.11914,-12.04297 z m 9.37109,5.125 c -6.30936,1.03944 6.53331,3.7966 0,0 z m 30.86328,3.35542 c -13.96282,-0.0519 -1.12408,10.67799 3.7127,8.77394 8.73427,-0.12366 24.0249,-1.05811 10.58613,-6.07472 -4.57107,-1.6565 -9.41975,-2.72393 -14.29883,-2.69922 z m -30.14446,8.27907 c -6.90456,2.65024 -6.90187,12.17441 -0.0254,4.11523 0.13252,-0.60978 1.71715,-3.54231 0.0254,-4.11523 z m 58.51758,2.87118 c 4.15308,6.5486 11.62591,5.38819 0,0 z m -118.3086,10.53125 c -12.78257,3.956 -2.25713,13.46565 6.56446,9.05469 9.57372,3.53738 16.82461,-4.71653 4.33789,-7.77539 -11.62335,-1.8886 16.91605,-1.41417 2.64844,-2.73047 -5.54774,-0.12485 -18.64119,-1.25495 -4.87305,-2.00586 7.95528,1.08214 18.20657,-3.87605 4.23242,-5.44922 -3.03083,-0.50599 -6.10038,-0.79126 -9.17383,-0.8125 -8.92512,-0.11053 -13.33118,9.57066 -3.73633,9.71875 z m 66.88282,-7.52539 c -9.79647,0.35646 -5.87364,16.0424 1.5039,9.07813 -10.22547,-3.75263 5.90342,-9.04058 -1.5039,-9.07815 z m -22.11133,1.37305 c -0.34454,0.005 -0.73355,0.024 -1.17188,0.0605 -14.7264,-1.07189 9.05788,13.65187 -1.82226,2.90625 3.17763,0.20727 8.16216,-3.04309 2.99414,-2.9668 z m 51.25781,1.94727 c 4.20156,0.15269 5.93357,2.48416 -4.375,0.68945 1.18394,-0.44984 2.39912,-0.64862 3.50391,-0.68945 0.29921,-0.0111 0.59099,-0.0102 0.87109,0 z m -46.11914,0.82226 c -11.77507,9.36346 8.51854,7.6927 0,0 z m -46.93945,3.17578 c 0.61503,0.0149 1.40039,0.0489 2.3789,0.10742 l 1.85547,0.31641 c -4.50196,0.28913 -8.53961,-0.52847 -4.23437,-0.42383 z m 89.92773,0.70508 c -29.16519,10.21004 41.05945,12.17092 10.61328,1.50195 -2.8373,-0.78874 -5.77846,-1.23772 -8.72656,-1.23437 -0.65589,-0.15755 -1.28554,-0.24284 -1.88672,-0.26758 z m -15.17383,0.63477 c -1.28191,4.98714 -13.32124,13.53056 -4.53906,4.13476 1.49309,-1.34998 2.73462,-3.17906 4.53906,-4.13476 z m 44.875,2.46875 c 1.52208,7.18831 -3.31733,6.64745 0,0 z m -90.78906,6.55078 c -1.59093,11.05458 13.25746,8.32458 20.40625,9.51367 -9.4486,1.38975 -32.62213,6.12808 -20.40625,-9.51367 z m -28.11719,0.19335 c -193.26823,101.14708 -96.63411,50.57354 0,0 z m -0.30273,0.32031 c -8.4785,-0.25207 -13.61958,13.75496 -1.28125,10.23047 5.39141,-2.76835 19.67707,3.22738 17.57617,-6.5918 -5.38937,-2.6966 -10.97132,-3.16898 -16.29492,-3.63867 z m 92.17578,0.14844 c -8.26751,-0.31212 -12.61764,5.88693 -4.625,10.17006 7.54545,2.52558 30.1669,-3.75161 12.28125,-9.11524 -4.72195,-0.60867 -4.73846,-0.6066 -7.65625,-1.05482 z m 27.11523,4.0039 c 3.82935,12.4744 -0.23965,25.76859 1.57422,38.80664 -0.2388,13.77809 -1.94611,27.56794 -0.71875,41.34375 -5.68922,-11.0215 -1.9573,-24.55131 -2.6582,-36.67382 0.7972,-13.59342 -0.18088,-27.35037 0.29688,-40.83594 0.51613,-0.59293 0.29222,-2.55316 1.50585,-2.64063 z m -60.86914,4.33594 3.11133,0.0684 c -4.97475,0.51071 -19.11304,0.61815 -6.28711,0.004 z m -59.2871,2.55664 c -6.96594,0.27137 -13.35864,4.37851 -2.10743,8.14649 4.97582,2.44572 -4.32271,1.79693 5.38672,2.04687 5.67621,-0.20047 14.42699,0.57643 4.24414,-1.23242 10.63969,1.29049 13.13925,-6.38178 1.81446,-7.375 -1.83909,-0.86397 -5.03363,-0.21212 -6.36719,-1.45508 -0.96878,-0.1299 -1.97559,-0.16963 -2.9707,-0.13086 z m 98.29492,0.67188 c -7.30618,0.10269 -21.62587,2.77454 -9.10157,9.44531 7.17339,3.867 30.76556,-2.45154 13.47461,-9.0586 l -3.01562,-0.37304 c -0.41471,-0.0156 -0.87034,-0.0205 -1.35742,-0.0137 z m -62.54102,3.29882 c 10.43276,3.61969 23.56088,-0.20938 32.42969,2.52344 -12.04356,5.49736 -36.86518,-9.16065 -32.94336,14.25 -0.0632,9.70205 20.7094,5.7084 5.80469,7.74024 -10.54137,2.12014 -17.17947,-24.80213 -5.29102,-24.51368 z m -36.5332,6.51368 c -12.09424,-0.16225 0.83308,12.58386 -2.39063,11.34375 -9.28994,6.14898 8.84662,11.10698 -3.28125,13.36523 -6.44029,8.66281 14.00965,5.89248 1.35157,9.19531 -7.92888,7.98182 0.6388,7.60888 6.58984,7.11914 5.17512,-0.78278 17.40165,2.54103 16.48047,-4.51172 -4.28011,-4.57512 -17.25405,-4.04025 -4.87696,-5.56054 17.74534,-7.05615 -21.03327,-11.42385 -3.10156,-10.07422 17.1772,2.12588 3.52868,-16.03746 -6.61718,-9.38867 -2.79222,-2.45349 25.68349,-0.91597 11.06054,-10.71289 -5.1393,-1.54342 -10.02047,0.74384 -15.21484,-0.77539 z m 82.75781,5.54687 c 0.62115,1.84295 1.97476,3.14579 2.64649,3.69141 -0.42384,-0.29266 -1.20752,-0.79724 -2.625,-1.60157 l -0.0899,-1.96679 z m 16.49219,5.08594 c -0.0856,-0.004 -0.26627,6.9e-4 -0.58594,0.0254 0.2462,0.0822 0.84269,-0.0136 0.58594,-0.0254 z m -99.21875,0.22656 2.25195,0.1836 z m 4.39648,10.58984 c -5.91213,1.28758 -5.58032,-0.11608 0,0 z m 92.41211,0.32813 1.30664,0.10352 z m -94.34765,9.9316 c 1.03909,0.007 2.61829,0.0757 4.75585,0.25781 -6.12767,0.26069 -7.87314,-0.27877 -4.75585,-0.25781 z m 94.79296,10.35547 c -256.82682,58.53773 -128.41341,29.26887 0,0 z m -89.29296,0.11333 c -197.29818,58.46218 -98.64909,29.23109 0,0 z m 84.20507,0.83589 c -8.28973,0.54641 -9.92174,7.28603 0.22657,8.68359 6.93225,2.87578 26.66488,-1.16588 12.88645,-6.88105 -3.29038,-0.96357 -8.01152,-1.86928 -13.11302,-1.80254 z m 10.24024,10.46484 c -260.26172,50.92836 -130.13086,25.46418 0,0 z m -27.79297,9.67578 c 6.64186,0.0921 8.73463,2.71413 -0.94531,2.90235 -5.57513,0.5745 -28.00771,-0.17416 -11.29297,-2.2793 3.03489,-0.30459 6.08448,-0.47477 9.13476,-0.49219 1.11349,-0.10448 2.15468,-0.14402 3.10352,-0.13086 z"
         style="font-variation-settings:normal;vector-effect:none;fill:#047c90;fill-opacity:1;stroke:none;stroke-width:39.3403;stroke-linecap:round;stroke-linejoin:miter;stroke-miterlimit:4;stroke-dasharray:none;stroke-dashoffset:0;stroke-opacity:1;-inkscape-stroke:none;stop-color:#000000;stop-opacity:1"
         id="path1542" /></g><g
       id="g52"
       transform="matrix(0.55411138,0,0,0.55411138,-49.929139,215.92206)"><g
         id="color"><path
           fill="#ffffff"
           d="m 17.2543,58.726 c 0,0 -2,-13.5 10,-13.5 3.1919,2.1279 5.9264,3.5984 9,3.5922 h -0.125 c 3.0736,0.0062 5.5081,-2.1643 8.7,-4.2922 15.5705,-1e-4 10.7,14.2 10.7,14.2"
           id="path1-7" /><path
           fill="#d0cfce"
           d="m 46.7393,44.7531 c -3.17,2.1133 -4.875,3 -8.9375,3.5886 13.0625,0.4114 13.0625,5.4114 13.8246,9.4114 4.2379,0 5.1129,0 5.1129,0 0,0 2,-13 -10,-13 z"
           id="path2" /><path
           fill="#ffffff"
           d="m 58.4735,43.0986 h -1.1793 v 6.4784 l 3.8661,8.8385 c 0,0 0.3081,1.3805 -0.7928,1.3805 -0.5364,0 -9.8482,0.0116 -10.3846,0.0116 -1.1009,0 -0.7928,-1.3804 -0.7928,-1.3804 l 3.8661,-8.8286 v -6.5 h -1.0854"
           id="path3" /><line
           x1="53.056198"
           x2="57.294201"
           y1="43.098598"
           y2="43.098598"
           fill="none"
           id="line3" /><path
           fill="#b1cc33"
           d="m 57.2942,49.577 3.8661,8.8385 c 0,0 0.3081,1.3805 -0.7928,1.3805 -0.5364,0 -9.8482,0.0116 -10.3846,0.0116 -1.1009,0 -0.7928,-1.3804 -0.7928,-1.3804 l 3.8661,-8.8286"
           id="path4" /><path
           fill="#92d3f5"
           d="m 23.1487,25.0027 c 0,0 12.7029,-7.0231 26.2497,0.8022 l -3.8831,6.0255 c 0,0 -6.7095,0.9323 -9.2418,-1.6 -2.5912,2.5912 -8.4903,1.6 -8.4903,1.6 z"
           id="path5" /></g><g
         id="hair"><path
           fill="#e27022"
           d="m 36,9.5808 c -10,0 -14,7 -14,14 0,7 0,13 4,13 h 20 c 4,0 4,-6 4,-13 0,-7 -4,-14 -14,-14 z m 9.5153,22.2496 c 0,0 -6.7095,0.9323 -9.2418,-1.6 -2.5912,2.5912 -8.4903,1.6 -8.4903,1.6 l -4.6345,-6.8277 c 0,0 12.7029,-7.0231 26.2497,0.8022 z"
           id="path6" /></g><g
         id="skin"><path
           fill="#fcea2b"
           d="M 47.187,24.6586 C 46.6731,24.3181 46.1719,23.9774 46,23.5808 c -3,-3 -7,-8 -7,-8 -4,3 -7,6 -13,7.0005 0,-3e-4 -1.2526,0.55 -1.9208,1.9705 2.9542,-1.3254 12.5697,-4.8149 23.1078,0.1068 z"
           id="path7" /><path
           fill="#fcea2b"
           d="m 45.5153,31.8304 c 0,0 -6.7095,0.9323 -9.2418,-1.6 -2.5912,2.5912 -8.4903,1.6 -8.4903,1.6 l -4.081,-6.0122 v 0 c -0.0997,0.7969 1.2343,1.5124 1.2343,2.7626 0,9 4.9365,14 11,14 5.7099,0 10.6571,-4.6369 11.0275,-12.9984 z"
           id="path8" /></g><g
         id="skin-shadow" /><g
         id="line"><path
           d="m 37.5615,58.9531 c -0.5527,0 -1,-0.4472 -1,-1 v -4.4248 c -6.1631,-1.165 -10.6885,-7.7207 -10.8877,-8.0127 -0.3105,-0.456 -0.1924,-1.0781 0.2647,-1.3886 0.4541,-0.3116 1.0781,-0.1924 1.3886,0.2626 0.0459,0.0674 4.6504,6.7227 10.3321,7.2784 0.5117,0.0498 0.9023,0.4804 0.9023,0.9951 v 5.29 c 0,0.5528 -0.4472,1 -1,1 z"
           id="path9" /><path
           d="m 16.9932,58.9521 c -0.4844,0 -0.9102,-0.3525 -0.9864,-0.8466 -0.041,-0.2696 -0.9726,-6.6328 2.5811,-10.7754 1.9228,-2.2412 4.751,-3.377 8.4072,-3.377 0.1973,0 0.3906,0.0586 0.5547,0.168 3.1533,2.1025 5.6611,3.4102 8.3828,3.4238 2.7227,-0.0127 5.2295,-1.3213 8.3828,-3.4238 0.1641,-0.1094 0.3575,-0.168 0.5547,-0.168 1.9072,0 3.6094,0.3155 5.0596,0.9365 0.5078,0.2168 0.7432,0.8047 0.5254,1.3125 -0.2168,0.5088 -0.8086,0.7452 -1.3125,0.5254 -1.127,-0.4824 -2.4629,-0.7412 -3.9756,-0.7714 -3.3096,2.1855 -6.0274,3.5459 -9.1279,3.5878 -0.0147,10e-4 -0.0313,0.003 -0.044,10e-4 h -0.0029 c -0.0108,0 -0.0254,0 -0.0381,0 h -0.043 c -0.0136,0 -0.0283,0 -0.0381,0 h -0.0029 c -0.0185,0.002 -0.0293,0 -0.0439,-10e-4 -3.1006,-0.0419 -5.8174,-1.4023 -9.128,-3.5878 -2.8964,0.0566 -5.1103,0.9541 -6.5859,2.6689 -2.956,3.4365 -2.1377,9.1201 -2.1289,9.1777 0.083,0.545 -0.292,1.0547 -0.8379,1.1387 -0.0508,0.0078 -0.1016,0.0107 -0.1523,0.0107 z"
           id="path10" /><path
           d="m 49.9824,60.8076 c -0.5801,0 -1.081,-0.2265 -1.4111,-0.6387 -0.5918,-0.7382 -0.4014,-1.7626 -0.3565,-1.9599 0.0137,-0.0635 0.0342,-0.124 0.0596,-0.1836 l 3.7822,-8.6358 v -5.291 h -0.0859 c -0.5527,0 -1,-0.4472 -1,-1 0,-0.5527 0.4473,-1 1,-1 h 1.0859 c 0.5528,0 1,0.4473 1,1 v 6.5 c 0,0.1377 -0.0283,0.2744 -0.0839,0.4014 l -3.8164,8.7139 c -0.003,0.0302 -0.0049,0.0615 -0.0059,0.0927 l 10.0498,-0.0107 c -0.001,-0.0313 -0.0029,-0.0635 -0.0068,-0.0947 l -3.8155,-8.7237 c -0.0556,-0.1259 -0.084,-0.2627 -0.084,-0.4004 v -6.4785 c 0,-0.5527 0.4473,-1 1,-1 h 1.1797 c 0.5528,0 1,0.4473 1,1 0,0.5528 -0.4472,1 -1,1 h -0.1797 v 5.2696 l 3.7823,8.6464 c 0.0263,0.0586 0.0459,0.1192 0.0595,0.1827 0.045,0.1972 0.2354,1.2207 -0.3564,1.959 -0.3301,0.413 -0.832,0.6396 -1.4121,0.6396 z"
           id="path11" /><path
           d="m 57.2939,44.0986 h -4.2373 c -0.5527,0 -1,-0.4472 -1,-1 0,-0.5527 0.4473,-1 1,-1 h 4.2373 c 0.5528,0 1,0.4473 1,1 0,0.5528 -0.4472,1 -1,1 z"
           id="path12" /><path
           d="m 41.9529,27.0468 c 0,1.1046 -0.8954,2 -2,2 -1.1046,0 -2,-0.8954 -2,-2 0,-1.1046 0.8954,-2 2,-2 1.1044,4e-4 1.9996,0.8956 2,2"
           id="path13" /><path
           d="m 33.9529,27.0468 c 0,1.1046 -0.8954,2 -2,2 -1.1046,0 -2,-0.8954 -2,-2 0,-1.1046 0.8954,-2 2,-2 1.1044,4e-4 1.9996,0.8956 2,2"
           id="path14" /><path
           d="m 35.9527,37.0492 c -1.2005,-0.0116 -2.3813,-0.3055 -3.4472,-0.8579 -0.494,-0.247 -0.6943,-0.8477 -0.4473,-1.3418 0.247,-0.4941 0.8477,-0.6943 1.3418,-0.4473 1.5934,0.8593 3.5121,0.8593 5.1055,0 0.494,-0.247 1.0947,-0.0468 1.3418,0.4473 0.2471,0.4941 0.0468,1.0947 -0.4473,1.3418 -1.0659,0.5524 -2.2468,0.8463 -3.4473,0.8579 z"
           id="path15" /><path
           fill="none"
           stroke="#000000"
           stroke-linecap="round"
           stroke-linejoin="round"
           stroke-width="2"
           d="m 26,36.5808 c -4,0 -4,-6 -4,-13 0,-7 4,-14 14,-14 10,0 14,7 14,14 0,7 0,13 -4,13"
           id="path16" /><path
           d="m 30.0567,33.0156 c -1.4844,0 -2.6045,-0.1816 -2.7129,-0.1992 -0.2686,-0.0449 -0.5078,-0.1992 -0.6611,-0.4248 l -4.6348,-6.8271 c -0.1582,-0.2325 -0.2109,-0.5206 -0.1455,-0.794 0.0654,-0.2734 0.2431,-0.5068 0.4892,-0.6426 0.5381,-0.2978 13.3555,-7.2046 27.2334,0.8111 0.2373,0.1367 0.4073,0.3647 0.4717,0.6308 0.0645,0.2656 0.0176,0.5464 -0.1308,0.7764 l -3.8829,6.0259 c -0.1582,0.2441 -0.415,0.4082 -0.7031,0.4482 -0.6806,0.0947 -6.3066,0.7959 -9.373,-1.2949 -1.7188,1.2119 -4.1133,1.4902 -5.9502,1.4902 z m -1.9678,-2.1123 c 1.7627,0.2149 5.5313,0.293 7.2041,-1.3799 0.3906,-0.3906 1.0234,-0.3906 1.4141,0 1.6513,1.6524 5.9384,1.5811 7.9492,1.3702 l 3.0488,-4.7315 C 37.2901,20.6631 27.4522,24.0635 24.3575,25.4063 Z"
           id="path17" /><path
           fill="none"
           stroke="#000000"
           stroke-linejoin="round"
           stroke-width="2"
           d="m 24.9484,27.6893 c -0.0078,0.282 -0.0119,0.5789 -0.0119,0.8915 0,9 4.9365,14 11,14 5.7258,0 10.6986,-4.6514 11.0443,-13.057"
           id="path18" /><path
           fill="none"
           stroke="#000000"
           stroke-linecap="round"
           stroke-linejoin="round"
           stroke-width="2"
           d="m 46,23.5808 c -3,-3 -7,-8 -7,-8 -4,3 -7,6 -13,7.0005 0,-2e-4 -0.2659,0.2494 -0.5317,1.1243"
           id="path19" /></g></g><g
       id="g53"
       transform="matrix(0.55411138,0,0,0.55411138,-85.537075,217.03221)"><g
         id="color-8"><path
           fill="#3f3f3f"
           d="m 54.8621,58.8041 c 0,0 2,-14 -10,-14 -3.1918,2.1279 -5.9264,3.5984 -9,3.5921 h 0.125 c -3.0736,0.0063 -5.8081,-1.4642 -9,-3.5921 -12,0 -10,14 -10,14"
           id="path1-4" /><polygon
           fill="#9b9b9a"
           points="35.8214,13.0654 26.7514,12.1854 21.3114,11.6554 35.1914,9.1254 50.3214,11.6554 45.1314,12.1554 "
           id="polygon1" /><path
           fill="#3f3f3f"
           d="m 45.1314,12.1554 v 7.97 c 0,0 -6.72,-0.26 -9.19,2.64 -2.47,-2.9 -9.19,-2.64 -9.19,-2.64 v -7.94 l 9.07,0.88 z"
           id="path2-5" /><path
           fill="#ffffff"
           d="m 35.9688,51.3809 c -0.0079,0 -0.0137,0 -0.0215,0 h -0.0459 c -0.0118,0 -0.0274,0 -0.041,0 v -10e-4 c -3.1973,-0.0313 -5.9854,-1.4639 -9.4278,-3.7598 -0.4599,-0.3066 -0.584,-0.9277 -0.2773,-1.3867 0.3056,-0.46 0.9248,-0.583 1.3867,-0.2773 3.1533,2.1025 5.6601,3.4101 8.3828,3.4248 2.7217,-0.0137 5.2285,-1.3223 8.3828,-3.4248 0.46,-0.3057 1.0811,-0.1827 1.3867,0.2773 0.3067,0.46 0.1827,1.0801 -0.2773,1.3867 -3.4434,2.2959 -6.2315,3.7285 -9.4277,3.7598 v 10e-4 c -0.0069,0 -0.0137,0 -0.0205,0 z"
           id="path3-0" /></g><g
         id="hair-3"><path
           fill="#f4aa41"
           d="m 26.5778,20.0977 c -0.6876,1.2066 -1.2278,2.5535 -1.5876,3.9997 l -0.0279,0.0694 c 0,0 3.9805,0.7845 7.961,-3.0788 l 0.0355,-0.1017 c -2.8687,-0.9967 -6.3327,-0.8611 -6.3327,-0.8611"
           id="path4-6" /><path
           fill="#f4aa41"
           d="m 45.0119,20.1252 c 0,0 -3.4076,-0.2012 -6.3247,0.9044 l 0.0275,0.0584 c 3.9805,3.8633 7.961,3.0788 7.961,3.0788 l -0.0102,0.0025 c -0.3597,-1.4735 -0.9063,-2.8451 -1.6054,-4.0716"
           id="path5-1" /></g><g
         id="skin-0"><path
           fill="#fcea2b"
           d="m 46.5413,24.1869 c -0.7043,0.0936 -4.2608,0.3619 -7.8265,-3.0989 l -0.0275,-0.0584 c 0.0073,-0.0027 0.0148,-0.0049 0.022,-0.0077 -1.0909,0.3906 -2.0895,0.9471 -2.7678,1.7435 -2.0695,-2.4297 -7.1041,-2.6405 -8.6871,-2.6452 1.1271,0.0109 3.5778,0.1272 5.7045,0.8661 l -0.0355,0.1017 c -3.5658,3.4608 -7.1223,3.1925 -7.8265,3.0989 -0.3976,1.4398 -0.6163,2.9834 -0.6163,4.5929 0,7.8276 5.0765,14.1732 11.3386,14.1732 6.2621,0 11.3386,-6.3456 11.3386,-14.1732 -2e-4,-1.6096 -0.2189,-3.1532 -0.6165,-4.5929 z"
           id="path6-6" /></g><g
         id="skin-shadow-3" /><g
         id="line-2"><path
           d="m 41.9416,26.9513 c 0,1.1045 -0.8965,2 -2,2 -1.1035,0 -2,-0.8955 -2,-2 0,-1.1035 0.8965,-2 2,-2 1.1035,0 2,0.8965 2,2"
           id="path7-0" /><path
           d="m 33.9416,26.9513 c 0,1.1045 -0.8965,2 -2,2 -1.1035,0 -2,-0.8955 -2,-2 0,-1.1035 0.8965,-2 2,-2 1.1035,0 2,0.8965 2,2"
           id="path8-6" /><path
           d="m 35.9414,36.9537 c -1.1518,0 -2.3037,-0.2861 -3.4472,-0.8579 C 32,35.8487 31.7998,35.2481 32.0469,34.754 c 0.2466,-0.4937 0.8462,-0.6943 1.3418,-0.4473 1.7178,0.8594 3.3877,0.8594 5.1055,0 0.4946,-0.247 1.0947,-0.0464 1.3418,0.4473 0.247,0.4941 0.0468,1.0947 -0.4473,1.3418 -1.1436,0.5718 -2.2954,0.8579 -3.4473,0.8579 z"
           id="path9-1" /><path
           d="m 46.13,19.7698 c -0.57,-1.03 -1.24,-1.97 -2,-2.79 v 2.15 c -0.22,0 -0.48,0.01 -0.76,0.03 0.46,0.6 0.87,1.2599 1.23,1.96 1.06,2.07 1.6801,4.54 1.6801,7.19 0,7.27 -4.64,13.18 -10.34,13.18 -5.7,0 -10.34,-5.91 -10.34,-13.18 0,-2.66 0.62,-5.13 1.69,-7.2 0.36,-0.7 0.77,-1.35 1.22,-1.95 -0.28,-0.02 -0.54,-0.03 -0.76,-0.03 v -2.15 c -0.75,0.82 -1.43,1.76 -2,2.79 -1.36,2.43 -2.15,5.37 -2.15,8.54 0,8.37 5.54,15.18 12.34,15.18 6.81,0 12.34,-6.81 12.34,-15.18 -10e-5,-3.17 -0.7901,-6.11 -2.1501,-8.54 z"
           id="path10-5" /><polyline
           fill="none"
           stroke="#000000"
           stroke-linecap="round"
           stroke-linejoin="round"
           stroke-miterlimit="10"
           stroke-width="2"
           points="21.3114,11.6554 26.7514,12.1854 35.8214,13.0654 45.1314,12.1554 50.3214,11.6554"
           id="polyline10" /><path
           d="m 36.74,23.3698 c -0.02,0.01 -0.03,0.03 -0.04,0.04 -0.13,0.16 -0.29,0.2599 -0.47,0.31 -0.04,0.02 -0.08,0.03 -0.12,0.03 -0.06,0.02 -0.11,0.02 -0.17,0.02 -0.06,0 -0.12,0 -0.17,-0.02 -0.04,0 -0.08,-0.01 -0.12,-0.03 -0.13,-0.03 -0.25,-0.1 -0.36,-0.19 -0.06,-0.05 -0.11,-0.1 -0.15,-0.16 -1.65,-1.86 -5.85,-2.25 -7.85,-2.26 -0.19,0 -0.36,0.01 -0.5,0.01 -0.27,0.01 -0.54,-0.08 -0.73,-0.27 -0.2,-0.19 -0.31,-0.45 -0.31,-0.72 v -8.47 c 0,-0.56 0.45,-1 1,-1 0.55,0 1,0.44 1,1 v 7.47 c 0.22,0 0.48,0.01 0.76,0.03 2.04,0.12 5.36,0.5699 7.43,2.24 0.28,0.21 0.53,0.45 0.76,0.72 0.31,0.3599 0.32,0.88 0.04,1.25 z"
           id="path11-5" /><path
           d="m 46.13,11.6598 v 8.47 c 0,0.27 -0.11,0.53 -0.3,0.72 -0.2,0.18 -0.44,0.28 -0.74,0.28 -0.14,-0.01 -0.31,-0.01 -0.4901,-0.01 -2.0099,0 -6.22,0.38 -7.86,2.25 -0.02,0.01 -0.03,0.03 -0.04,0.04 -0.13,0.16 -0.29,0.2599 -0.47,0.31 -0.04,0.02 -0.08,0.03 -0.12,0.03 -0.06,0.02 -0.11,0.02 -0.17,0.02 -0.06,0 -0.12,0 -0.17,-0.02 -0.04,0 -0.08,-0.01 -0.12,-0.03 -0.13,-0.03 -0.25,-0.1 -0.36,-0.19 -0.06,-0.05 -0.11,-0.1 -0.15,-0.16 -0.28,-0.37 -0.27,-0.89 0.04,-1.25 0.23,-0.27 0.48,-0.51 0.76,-0.72 2.07,-1.67 5.39,-2.12 7.43,-2.24 0.28,-0.02 0.54,-0.03 0.76,-0.03 v -7.47 c 0,-0.56 0.45,-1 1,-1 0.55,0 1.0001,0.44 1.0001,1 z"
           id="path12-4" /><polyline
           fill="none"
           stroke="#000000"
           stroke-linecap="round"
           stroke-linejoin="round"
           stroke-miterlimit="10"
           stroke-width="2"
           points="50.3214,11.6554 35.1914,9.1254 21.3114,11.6554"
           id="polyline12" /><path
           d="m 21.3125,21.0005 c -0.5527,0 -1,-0.4478 -1,-1 v -8.1211 c 0,-0.5523 0.4473,-1 1,-1 0.5527,0 1,0.4477 1,1 v 8.1211 c 0,0.5522 -0.4473,1 -1,1 z"
           id="path13-7" /><path
           d="m 19.2852,23.5801 c -0.2159,0 -0.4336,-0.0698 -0.6172,-0.2134 -0.4336,-0.3413 -0.5098,-0.9702 -0.168,-1.4043 l 2.0264,-2.5796 c 0.3408,-0.4336 0.9677,-0.5102 1.4043,-0.1689 0.4336,0.3413 0.5097,0.9702 0.1679,1.4043 l -2.0263,2.5796 c -0.1973,0.2509 -0.4903,0.3823 -0.7871,0.3823 z"
           id="path14-6" /><path
           d="m 21.3125,25.1011 c -0.5527,0 -1,-0.4478 -1,-1 v -4.1006 c 0,-0.5523 0.4473,-1 1,-1 0.5527,0 1,0.4477 1,1 v 4.1006 c 0,0.5522 -0.4473,1 -1,1 z"
           id="path15-5" /><path
           d="m 45.8936,25.2324 c -1.5938,0 -4.6875,-0.4511 -7.753,-3.4267 -0.3965,-0.3848 -0.4062,-1.0181 -0.0215,-1.4141 0.3858,-0.3965 1.0176,-0.4053 1.4141,-0.0215 3.5215,3.4185 6.9356,2.8418 7.0781,2.8145 0.5401,-0.0967 1.0635,0.2573 1.1651,0.7964 0.1025,0.54 -0.2461,1.061 -0.7852,1.1669 -0.0527,0.0108 -0.4531,0.0845 -1.0976,0.0845 z"
           id="path16-6" /><path
           d="m 25.9893,25.2324 c -0.6455,0 -1.045,-0.0737 -1.0977,-0.0845 -0.542,-0.1064 -0.8945,-0.6323 -0.7881,-1.1743 0.1065,-0.5405 0.6289,-0.8911 1.169,-0.789 0.1611,0.0312 3.5664,0.5947 7.0771,-2.8145 0.3965,-0.3838 1.0283,-0.375 1.4141,0.0215 0.3847,0.396 0.375,1.0293 -0.0215,1.4141 -3.0654,2.9756 -6.1592,3.4267 -7.7529,3.4267 z"
           id="path17-9" /><path
           d="m 54.7588,58.8027 c -0.0508,0 -0.1016,-0.0029 -0.1524,-0.0107 -0.5459,-0.084 -0.9209,-0.5938 -0.8378,-1.1387 0.0087,-0.0576 0.8271,-5.7412 -2.129,-9.1777 -1.4755,-1.7149 -3.6894,-2.6123 -6.5859,-2.669 -3.3096,2.1856 -6.0283,3.5459 -9.126,3.5889 -0.0214,0.001 -0.0429,0.001 -0.0644,0.001 -0.0078,0 -0.0137,0 -0.0215,0 h -0.0449 c -0.0147,0 -0.0274,0 -0.042,0 -0.0147,0 -0.0293,0 -0.044,-0.001 -3.0996,-0.043 -5.8164,-1.4033 -9.1259,-3.5889 -2.8965,0.0567 -5.1104,0.9541 -6.586,2.669 -2.956,3.4365 -2.1377,9.1201 -2.1289,9.1777 0.083,0.5449 -0.292,1.0547 -0.8379,1.1387 -0.5351,0.084 -1.0547,-0.29 -1.1386,-0.8359 -0.0411,-0.2696 -0.9727,-6.6329 2.581,-10.7754 1.9229,-2.2412 4.751,-3.377 8.4072,-3.377 0.1973,0 0.3907,0.0586 0.5547,0.168 3.1533,2.1025 5.6602,3.4101 8.3828,3.4248 2.7217,-0.0137 5.2286,-1.3223 8.3828,-3.4248 0.1641,-0.1094 0.3575,-0.168 0.5547,-0.168 3.6563,0 6.4844,1.1358 8.4073,3.377 3.5537,4.1425 2.622,10.5058 2.581,10.7754 -0.0762,0.4941 -0.5019,0.8466 -0.9863,0.8466 z"
           id="path18-3" /></g></g><g
       id="g54"
       transform="matrix(0.55411138,0,0,0.55411138,-58.282389,234.61123)"><g
         id="color-7"><path
           fill="#ffffff"
           d="m 16.4082,58.7958 c 0,0 -2,-13.5 10,-13.5 3.1919,2.1279 5.9264,3.5984 9,3.5921 h -0.125 c 3.0736,0.0063 5.5081,-2.1642 8.7,-4.2921 15.5705,-10e-5 10.7,14.2 10.7,14.2"
           id="path1-45" /><path
           fill="#d0cfce"
           d="m 45.2932,44.1229 c -3.17,2.1133 -3.075,3.7 -7.1375,4.2886 13.0625,0.4114 13.0625,5.4114 13.8246,9.4114 4.2379,0 5.1129,0 5.1129,0 0,0 0.2,-13.7 -11.8,-13.7 z"
           id="path2-2" /><path
           fill="#ffffff"
           d="m 58.4274,43.1684 h -1.1793 v 6.4783 l 3.8661,8.8386 c 0,0 0.3081,1.3804 -0.7928,1.3804 -0.5364,0 -9.8482,0.0117 -10.3846,0.0117 -1.1009,0 -0.7928,-1.3804 -0.7928,-1.3804 l 3.8661,-8.8286 v -6.5 h -1.0854"
           id="path3-5" /><line
           x1="53.010101"
           x2="57.2481"
           y1="43.1684"
           y2="43.1684"
           fill="none"
           id="line3-4" /><path
           fill="#b1cc33"
           d="m 57.0481,49.6467 3.8661,8.8386 c 0,0 0.3081,1.3804 -0.7928,1.3804 -0.5364,0 -9.8482,0.0117 -10.3846,0.0117 -1.1009,0 -0.7928,-1.3804 -0.7928,-1.3804 l 3.8661,-8.8286"
           id="path4-7" /><path
           fill="#92d3f5"
           d="m 22.8026,25.1725 c 0,0 12.7029,-7.0231 26.2497,0.8022 l -3.8831,6.0255 c 0,0 -6.7095,0.9322 -9.2418,-1.6 -2.5912,2.5912 -8.4903,1.6 -8.4903,1.6 z"
           id="path5-4" /></g><g
         id="hair-4"><path
           fill="#e27022"
           d="m 52.1519,25.2249 c -0.7507,-5.994 -2.7826,-10.6506 -5.1433,-12.7278 -2.9246,-2.5738 -6.459,-0.514 -6.459,-0.514 0,0 -5.3405,-6.4837 -12.9044,-1.6624 -7.5638,4.8214 -8.3703,14.9042 -8.3703,14.9042 0,0 -0.7261,8.073 0.3152,16.5172 0.2071,1.6792 0.6382,3.3293 1.3223,4.8728 1.3883,-0.8123 3.1788,-1.3191 5.4958,-1.3191 3.1658,2.1105 5.8825,3.5701 8.9255,3.5878 3.0493,-0.0179 5.4755,-2.1718 8.6495,-4.2878 2.7432,0 4.8411,0.447 6.4537,1.1732 0.6005,-1.0406 1.0916,-2.1504 1.4464,-3.3234 0.3227,-1.0668 0.4429,-2.1835 0.4549,-3.298 0.0347,-3.2445 0.1754,-11.0359 -0.1863,-13.9227 z m -6.9827,6.7753 c 0,0 -6.7095,0.9322 -9.2418,-1.6 -2.5912,2.5912 -8.4904,1.6 -8.4904,1.6 l -4.6345,-6.8277 c 0,0 12.7029,-7.0231 26.2497,0.8022 z"
           id="path6-3" /></g><g
         id="skin-07"><path
           fill="#fcea2b"
           d="m 47.4246,25.1099 -8.4968,-6.6935 c -2.4692,1.8462 -4.9036,3.1522 -7.0764,4.0812 4.339,-0.5405 9.8359,-0.2295 15.5732,2.6123 z"
           id="path7-8" /><path
           fill="#fcea2b"
           d="m 45.1692,32.0002 c 0,0 -6.7095,0.9322 -9.2418,-1.6 -2.5912,2.5912 -8.4904,1.6 -8.4904,1.6 l -2.4694,-3.638 c 0.1837,7.6266 5.1753,13.7426 11.3212,13.7426 6.1889,0 11.2108,-6.2008 11.3276,-13.902 z"
           id="path8-68" /></g><g
         id="skin-shadow-8" /><g
         id="line-4"><line
           x1="33.026001"
           x2="33.026001"
           y1="54.891701"
           y2="56.660999"
           fill="none"
           stroke="#000000"
           stroke-linecap="round"
           stroke-linejoin="round"
           stroke-miterlimit="10"
           stroke-width="2"
           id="line8" /><path
           d="m 41.8917,27.0725 c 0,1.1045 -0.8965,2 -2,2 -1.1035,0 -2,-0.8955 -2,-2 0,-1.1035 0.8965,-2 2,-2 1.1035,0 2,0.8965 2,2"
           id="path9-3" /><path
           d="m 33.8917,27.0725 c 0,1.1045 -0.8965,2 -2,2 -1.1035,0 -2,-0.8955 -2,-2 0,-1.1035 0.8965,-2 2,-2 1.1035,0 2,0.8965 2,2"
           id="path10-1" /><path
           d="m 35.8915,37.0749 c -1.1518,0 -2.3037,-0.2861 -3.4472,-0.8579 -0.4942,-0.2471 -0.6944,-0.8477 -0.4473,-1.3418 0.2466,-0.4937 0.8462,-0.6944 1.3418,-0.4473 1.7178,0.8594 3.3877,0.8594 5.1055,0 0.4946,-0.2471 1.0947,-0.0464 1.3418,0.4473 0.247,0.4941 0.0468,1.0947 -0.4473,1.3418 -1.1436,0.5718 -2.2954,0.8579 -3.4473,0.8579 z"
           id="path11-4" /><path
           fill="none"
           stroke="#000000"
           stroke-linecap="round"
           stroke-linejoin="round"
           stroke-miterlimit="10"
           stroke-width="2"
           d="m 47.1732,29.8627 c -0.5734,7.1564 -5.4055,12.7438 -11.2817,12.7438 -6.2621,0 -11.3386,-6.3456 -11.3386,-14.1732 v -1.2531"
           id="path12-9" /><path
           fill="none"
           stroke="#000000"
           stroke-linecap="round"
           stroke-linejoin="round"
           stroke-miterlimit="10"
           stroke-width="2"
           d="m 16.8316,57.9252 c 0,0 -2,-13 10,-13 3.1919,2.128 5.9264,3.5985 9,3.5922 h -0.125 c 3.0736,0.0063 5.8081,-1.4642 9,-3.5922 1.8775,0 3.4123,0.3183 4.6656,0.8551"
           id="path13-2" /><path
           fill="none"
           stroke="#000000"
           stroke-linecap="round"
           stroke-linejoin="round"
           stroke-miterlimit="10"
           stroke-width="2"
           d="m 58.3099,43.0707 h -1.1793 v 6.4784 l 3.8661,8.8385 c 0,0 0.3081,1.3805 -0.7928,1.3805 -0.5364,0 -9.8482,0.0116 -10.3846,0.0116 -1.1009,0 -0.7928,-1.3804 -0.7928,-1.3804 l 3.8661,-8.8286 v -6.5 h -1.0854"
           id="path14-0" /><line
           x1="52.892601"
           x2="57.1306"
           y1="43.070702"
           y2="43.070702"
           fill="none"
           stroke="#000000"
           stroke-linecap="round"
           stroke-linejoin="round"
           stroke-miterlimit="10"
           stroke-width="2"
           id="line14" /><path
           fill="none"
           stroke="#000000"
           stroke-linecap="round"
           stroke-linejoin="round"
           stroke-miterlimit="10"
           stroke-width="2"
           d="m 32.2796,22.3852 c 4.2811,-1.6427 6.6482,-3.9688 6.6482,-3.9688 0,0 3.8316,3.9334 7.8297,6.0854"
           id="path15-6" /><path
           fill="none"
           stroke="#000000"
           stroke-linecap="round"
           stroke-linejoin="round"
           stroke-miterlimit="10"
           stroke-width="2"
           d="M 20.7138,42.7252 C 19.3296,33.863 20.3183,24.6743 20.3183,24.6743 c 0,0 0.7556,-9.7405 7.8405,-14.3982 7.0849,-4.6577 12.0875,1.6059 12.0875,1.6059 0,0 3.3103,-1.9898 6.05,0.4966 2.2111,2.0066 4.1143,6.5052 4.8177,12.2957 0.4325,3.5614 0.5575,9.7039 0.2505,14.8494"
           id="path16-8" /><path
           fill="none"
           stroke="#000000"
           stroke-linecap="round"
           stroke-linejoin="round"
           stroke-miterlimit="10"
           stroke-width="2"
           d="m 26.3376,44.9252 c 0,0 4.831,7.1009 11.0601,7.7101 v 5.2899"
           id="path17-92" /><line
           x1="33.026001"
           x2="33.026001"
           y1="56.134201"
           y2="57.903599"
           fill="none"
           stroke="#000000"
           stroke-linecap="round"
           stroke-linejoin="round"
           stroke-miterlimit="10"
           stroke-width="2"
           id="line17" /><path
           fill="none"
           stroke="#000000"
           stroke-linecap="round"
           stroke-linejoin="round"
           stroke-miterlimit="10"
           stroke-width="2"
           d="m 23.1223,25.0725 c 0,0 12.7029,-7.0231 26.2497,0.8022 l -3.8831,6.0255 c 0,0 -6.7095,0.9322 -9.2418,-1.6 -2.5912,2.5912 -8.4903,1.6 -8.4903,1.6 z"
           id="path18-6" /></g></g><g
       id="g55"
       transform="matrix(0.55411138,0,0,0.55411138,-93.973344,235.64365)"><g
         id="color-6"><path
           fill="#3f3f3f"
           d="m 54.8495,58.9165 c 0,0 2,-14 -10,-14 -3.1919,2.1279 -5.9264,3.5984 -9,3.5922 h 0.125 c -3.0736,0.0062 -5.8082,-1.4643 -9,-3.5922 -12,0 -10,14 -10,14"
           id="path1-49" /><polygon
           fill="#9b9b9a"
           points="45.1188,12.2713 35.8088,13.1813 26.7388,12.2913 21.2988,11.7613 35.1788,9.2413 50.3088,11.7613 "
           id="polygon1-5" /><path
           fill="#3f3f3f"
           d="m 45.1188,12.2713 v 7.97 c 0,0 -6.72,-0.27 -9.19,2.63 -2.47,-2.9 -9.19,-2.63 -9.19,-2.63 v -7.95 l 9.07,0.89 z"
           id="path2-0" /><path
           fill="#ffffff"
           d="m 35.8506,51.4932 c -0.0049,0 -0.0098,0 -0.0147,0 h -0.0586 c -0.0097,0 -0.0195,0 -0.0293,0 h -0.0039 c -9e-4,0 -9e-4,0 -0.0019,0 v -0.001 c -3.1973,-0.0313 -5.9854,-1.4639 -9.4277,-3.7598 -0.46,-0.3066 -0.584,-0.9277 -0.2774,-1.3867 0.3057,-0.46 0.9248,-0.584 1.3867,-0.2773 3.1533,2.1025 5.6602,3.4101 8.3828,3.4248 2.7217,-0.0137 5.2286,-1.3223 8.3829,-3.4248 0.4609,-0.3067 1.081,-0.1827 1.3867,0.2773 0.3066,0.46 0.1826,1.0801 -0.2774,1.3867 -3.4433,2.2959 -6.2314,3.7285 -9.4277,3.7598 v 0.001 c -10e-4,0 -10e-4,0 -0.002,0 h -0.0039 c -0.0048,0 -0.0107,0 -0.0146,0 z"
           id="path3-4" /></g><g
         id="hair-8"><path
           fill="#f4aa41"
           d="m 21.1866,46.4742 c 1.4263,-0.9518 3.3033,-1.5577 5.7879,-1.5577 3.1699,2.1133 5.8895,3.5746 8.9375,3.5886 3.048,-0.0139 5.7675,-1.4753 8.9375,-3.5886 2.4695,0 4.3384,0.5988 5.7615,1.5405 1.121,-1.4768 1.9742,-3.0567 2.3716,-4.7086 2.0498,-8.5205 -5.2788,-18.3913 -7.4774,-21.5108 -4.1739,-0.3651 -7.3131,0.5797 -9.5764,2.6336 -2.4446,-2.1166 -5.6751,-2.8033 -9.3764,-2.6336 -2.1985,3.1195 -9.7601,13.0233 -7.5775,21.5108 0.4411,1.7153 1.2238,3.289 2.2117,4.7258 z"
           id="path4-71" /></g><g
         id="skin-7"><path
           fill="#fcea2b"
           d="m 47.1449,28.8923 c -6.6211,-7.1154 -8.1216,-9.2836 -11.2161,-6.021 -3.3996,-3.3996 -3.5685,-0.36 -11.4025,4.6002 -0.0387,0.4764 -0.0585,0.9315 -0.0585,1.4208 0,7.8276 5.0764,14.1732 11.3386,14.1732 6.2621,0 11.3385,-6.3456 11.3385,-14.1732 z"
           id="path5-2" /></g><g
         id="skin-shadow-7" /><g
         id="line-22"><path
           d="m 41.9289,27.0637 c 0,1.1045 -0.8965,2 -2,2 -1.1035,0 -2,-0.8955 -2,-2 0,-1.1035 0.8965,-2 2,-2 1.1035,0 2,0.8965 2,2"
           id="path6-61" /><path
           d="m 33.9289,27.0637 c 0,1.1045 -0.8965,2 -2,2 -1.1035,0 -2,-0.8955 -2,-2 0,-1.1035 0.8965,-2 2,-2 1.1035,0 2,0.8965 2,2"
           id="path7-06" /><path
           d="m 35.9288,37.0662 c -1.1519,0 -2.3037,-0.2862 -3.4473,-0.858 -0.4941,-0.247 -0.6943,-0.8476 -0.4472,-1.3417 0.2465,-0.4937 0.8461,-0.6944 1.3417,-0.4473 1.7178,0.8594 3.3877,0.8594 5.1055,0 0.4946,-0.2471 1.0947,-0.0464 1.3418,0.4473 0.2471,0.4941 0.0469,1.0947 -0.4473,1.3417 -1.1435,0.5718 -2.2954,0.858 -3.4472,0.858 z"
           id="path8-1" /><path
           d="m 54.7461,58.915 c -0.0508,0 -0.1016,-0.0029 -0.1523,-0.0107 -0.5459,-0.084 -0.9209,-0.5938 -0.8379,-1.1387 0.0087,-0.0576 0.8271,-5.7412 -2.1289,-9.1777 -1.4756,-1.7149 -3.6895,-2.6123 -6.586,-2.669 -3.3096,2.1856 -6.0283,3.5459 -9.126,3.5889 -0.0214,0.002 -0.0429,10e-4 -0.0644,10e-4 -0.0078,0 -0.0137,0 -0.0215,0 h -0.0449 c -0.0147,0 -0.0283,0 -0.042,0 -0.0147,0 -0.0293,0 -0.044,-10e-4 -3.0996,-0.043 -5.8164,-1.4033 -9.1259,-3.5889 -2.8965,0.0567 -5.1104,0.9541 -6.586,2.669 -2.956,3.4365 -2.1377,9.1201 -2.1289,9.1777 0.083,0.5449 -0.292,1.0547 -0.8379,1.1387 -0.5332,0.0801 -1.0547,-0.29 -1.1386,-0.8359 -0.0411,-0.2696 -0.9727,-6.6329 2.581,-10.7754 1.9229,-2.2412 4.751,-3.377 8.4072,-3.377 0.1973,0 0.3907,0.0586 0.5547,0.168 3.1533,2.1025 5.6602,3.4101 8.3828,3.4248 2.7217,-0.0137 5.2286,-1.3223 8.3829,-3.4248 0.164,-0.1094 0.3574,-0.168 0.5546,-0.168 3.6563,0 6.4844,1.1358 8.4073,3.377 3.5537,4.1425 2.622,10.5058 2.581,10.7754 -0.0761,0.4941 -0.5019,0.8466 -0.9863,0.8466 z"
           id="path9-5" /><path
           d="m 21.2998,21.1133 c -0.5527,0 -1,-0.4478 -1,-1 v -8.1216 c 0,-0.5522 0.4473,-1 1,-1 0.5527,0 1,0.4478 1,1 v 8.1216 c 0,0.5522 -0.4473,1 -1,1 z"
           id="path10-9" /><path
           d="m 19.2725,23.6929 c -0.2159,0 -0.4336,-0.0699 -0.6172,-0.2134 -0.4336,-0.3413 -0.5098,-0.9702 -0.168,-1.4043 l 2.0264,-2.5796 c 0.3408,-0.4331 0.9677,-0.5093 1.4043,-0.1689 0.4336,0.3413 0.5097,0.9702 0.1679,1.4043 l -2.0263,2.5795 c -0.1973,0.251 -0.4903,0.3824 -0.7871,0.3824 z"
           id="path11-49" /><path
           d="m 21.2998,25.2134 c -0.5527,0 -1,-0.4478 -1,-1 v -4.1001 c 0,-0.5523 0.4473,-1 1,-1 0.5527,0 1,0.4477 1,1 v 4.1001 c 0,0.5522 -0.4473,1 -1,1 z"
           id="path12-0" /><path
           d="m 20.3213,44.0664 c -0.3731,0 -0.7305,-0.209 -0.9024,-0.5674 -0.2255,-0.4697 -0.4238,-0.9482 -0.5888,-1.4219 -2.9785,-8.5644 4.2597,-18.8125 6.6387,-22.1801 l 0.166,-0.2354 c 0.3183,-0.4507 0.9423,-0.56 1.3935,-0.2412 0.4512,0.3179 0.5596,0.9419 0.2412,1.3936 l -0.167,0.2373 c -2.2324,3.1596 -9.0244,12.7758 -6.3837,20.3686 0.1406,0.4024 0.3095,0.8106 0.5029,1.2139 0.2392,0.498 0.0293,1.0957 -0.4688,1.334 -0.1396,0.0674 -0.2871,0.0986 -0.4316,0.0986 z"
           id="path13-9" /><path
           d="m 51.5361,44.0664 c -0.1445,0 -0.292,-0.0312 -0.4316,-0.0986 -0.4981,-0.2383 -0.708,-0.836 -0.4688,-1.334 0.1934,-0.4033 0.3623,-0.8115 0.503,-1.2149 2.6406,-7.5918 -4.1514,-17.208 -6.3838,-20.3676 l -0.167,-0.2373 c -0.3184,-0.4517 -0.21,-1.0757 0.2412,-1.3936 0.4502,-0.3188 1.0762,-0.2095 1.3936,0.2412 l 0.166,0.2354 c 2.3789,3.3676 9.6172,13.6157 6.6386,22.1792 -0.165,0.4746 -0.3632,0.9531 -0.5888,1.4228 -0.1719,0.3584 -0.5293,0.5674 -0.9024,0.5674 z"
           id="path14-1" /><path
           d="m 24.6201,28.6279 c -0.3564,0 -0.7012,-0.1875 -0.8818,-0.5205 -0.2637,-0.4853 -0.0908,-1.0884 0.3945,-1.3515 l 0.0147,-0.0083 c 4.1728,-2.2642 4.1728,-2.2642 8.1572,-6.3213 l 1.458,1.3701 c -4.1865,4.2622 -4.2666,4.3247 -8.6611,6.709 -0.1534,0.083 -0.3184,0.1225 -0.4815,0.1225 z"
           id="path15-7" /><path
           d="m 47.2471,28.6348 c -0.1612,0 -0.3242,-0.0386 -0.4756,-0.1211 -0.1817,-0.0987 -4.499,-2.4634 -8.6768,-6.7173 -0.3867,-0.3941 -0.3808,-1.0274 0.0137,-1.4141 0.3926,-0.3872 1.0254,-0.3818 1.4141,0.0127 3.9687,4.042 8.1601,6.3379 8.2021,6.3609 0.4854,0.2631 0.666,0.8701 0.4024,1.3559 -0.1807,0.3335 -0.5245,0.523 -0.8799,0.523 z"
           id="path16-7" /><path
           d="m 35.9287,43.5977 c -7.1494,0 -12.3389,-6.6202 -12.3389,-15.7403 0,-0.5522 0.4473,-1 1,-1 0.5528,0 1,0.4478 1,1 0,7.9619 4.3477,13.7403 10.3389,13.7403 5.7012,0 10.3389,-5.9092 10.3389,-13.1734 0,-0.2495 -0.0059,-0.498 -0.0166,-0.7446 -0.0244,-0.5518 0.4023,-1.0191 0.9541,-1.044 0.539,-0.0117 1.0185,0.4019 1.0439,0.9541 0.0127,0.2769 0.0186,0.5547 0.0186,0.8345 0,8.3667 -5.5352,15.1734 -12.3389,15.1734 z"
           id="path17-1" /><polyline
           fill="none"
           stroke="#000000"
           stroke-linecap="round"
           stroke-linejoin="round"
           stroke-miterlimit="10"
           stroke-width="2"
           points="21.2988,11.7613 26.7388,12.2913 35.8088,13.1813 45.1188,12.2713 50.3088,11.7613"
           id="polyline17" /><path
           fill="none"
           stroke="#000000"
           stroke-linecap="round"
           stroke-linejoin="round"
           stroke-miterlimit="10"
           stroke-width="2"
           d="m 26.7388,11.7613 v 0.53 7.95 c 0,0 6.72,-0.27 9.19,2.63"
           id="path18-1" /><path
           fill="none"
           stroke="#000000"
           stroke-linecap="round"
           stroke-linejoin="round"
           stroke-miterlimit="10"
           stroke-width="2"
           d="m 45.1188,11.7613 v 0.51 7.97 c 0,0 -6.72,-0.27 -9.19,2.63"
           id="path19-5" /><polyline
           fill="none"
           stroke="#000000"
           stroke-linecap="round"
           stroke-linejoin="round"
           stroke-miterlimit="10"
           stroke-width="2"
           points="50.3088,11.7613 35.1788,9.2413 21.2988,11.7613"
           id="polyline19" /></g></g></g></svg>
